<?xml version="1.0" encoding="UTF-8" standalone="no"?>
<!-- Created with Inkscape (http://www.inkscape.org/) -->

<svg
   xmlns:dc="http://purl.org/dc/elements/1.1/"
   xmlns:cc="http://creativecommons.org/ns#"
   xmlns:rdf="http://www.w3.org/1999/02/22-rdf-syntax-ns#"
   xmlns:svg="http://www.w3.org/2000/svg"
   xmlns="http://www.w3.org/2000/svg"
   xmlns:sodipodi="http://sodipodi.sourceforge.net/DTD/sodipodi-0.dtd"
   xmlns:inkscape="http://www.inkscape.org/namespaces/inkscape"
   id="svg18884"
   version="1.1"
   inkscape:version="0.91 r13725"
   width="162.5"
   height="65"
   viewBox="0 0 162.5 65"
   sodipodi:docname="logos.svg">
  <metadata
     id="metadata18890">
    <rdf:RDF>
      <cc:Work
         rdf:about="">
        <dc:format>image/svg+xml</dc:format>
        <dc:type
           rdf:resource="http://purl.org/dc/dcmitype/StillImage" />
        <dc:title></dc:title>
      </cc:Work>
    </rdf:RDF>
  </metadata>
  <defs
     id="defs18888" />
  <sodipodi:namedview
     pagecolor="#ffffff"
     bordercolor="#666666"
     borderopacity="1"
     objecttolerance="10"
     gridtolerance="10"
     guidetolerance="10"
     inkscape:pageopacity="0"
     inkscape:pageshadow="2"
     inkscape:window-width="1215"
     inkscape:window-height="776"
     id="namedview18886"
     showgrid="false"
     inkscape:zoom="5.6568542"
     inkscape:cx="92.255606"
     inkscape:cy="31.68183"
     inkscape:window-x="65"
     inkscape:window-y="24"
     inkscape:window-maximized="1"
     inkscape:current-layer="svg18884" />
  <g
     id="g19098"
     transform="translate(0.5303301,0.176777)">
    <path
       style="fill:#da9cab"
       d="m 24.028132,63.05412 c -5.008244,-3.166735 -2.780591,-12.275719 3.294252,-12.229779 1.910128,3.448505 -6.871439,8.17941 -0.270342,11.495403 6.366572,0.841832 7.748679,-8.274884 8.699172,-13.01228 C 37.899649,41.02105 28.901863,50.138113 25.326722,45.768082 20.887948,42.770307 20.016073,35.531203 13.069718,37.203805 6.5760322,36.145284 -0.41993473,31.416654 -0.18011491,24.141276 -0.57716906,16.749412 6.8627331,10.125358 14.182787,12.354399 19.173533,16.186263 7.8177642,14.036087 5.9523827,16.654123 -0.5177716,21.176736 3.1167533,31.614515 9.9422478,33.71086 12.756531,34.787896 15.804439,34.849603 18.75,35.329172 18.222427,24.206109 20.445881,12.098378 28.806533,4.1169062 32.681003,0.27297692 40.328275,-1.3569646 43.678517,4.0084807 47.802863,9.003871 45.369834,15.508123 43.023864,20.691095 c -3.400136,7.208625 -9.66272,12.892571 -17.16124,15.557207 -6.323728,4.722995 5.509724,12.399831 9.03899,5.998481 4.213427,-2.70165 2.692136,-12.687621 8.440698,-11.719951 -1.475448,7.183671 -3.233036,14.522405 -4.721029,21.785561 -1.001186,5.298323 -3.225179,11.542081 -9.377831,12.358769 -1.947199,0.76511 -3.720125,-0.532159 -5.21532,-1.617042 z m 5.51458,-31.702369 C 37.313345,26.282988 42.916602,16.660707 41.706637,7.260345 39.571852,1.1567929 31.010073,4.0024158 28.64542,8.6032321 24.090912,15.618846 22.329896,24.414373 22.877468,32.668874 c 1.279668,2.822109 5.01581,-0.675271 6.665244,-1.317123 z m 71.159598,30.023344 c 0.82375,-12.118527 3.24429,-24.132599 5.59499,-36.052678 0.14331,-3.240642 1.53907,-3.400635 3.00789,-1.044112 6.74464,-5.283179 9.629,4.642175 7.65414,9.787158 -0.20809,2.640214 -5.96534,12.929212 -0.2103,7.359759 4.63764,-4.898039 4.20292,-12.066702 6.83779,-17.8553 4.87343,-2.586303 0.61009,8.183298 0.75484,11.211676 -1.02544,3.056932 -0.31647,12.588268 2.40485,4.85735 3.0602,-5.19939 2.9327,-11.625229 5.71881,-16.796695 4.64134,-1.871044 -0.94708,8.372388 3.42353,2.261801 4.53411,-6.217852 8.56898,2.092136 5.85774,6.600501 -0.3379,3.118039 -3.34957,9.821183 -0.2978,11.059761 6.33826,-10.332033 5.69891,-23.190033 10.27773,-34.212812 2.6917,-6.1891661 7.62547,-0.5597322 4.87666,3.845971 -1.00641,3.7109 -2.49632,7.264658 -3.76491,10.889686 5.39436,-1.73741 6.3943,4.280381 3.44965,7.907331 -3.81576,3.291091 -5.15053,7.692202 -2.22244,11.987143 1.05668,2.618571 2.92477,-4.032992 4.20786,-4.876793 0.89881,-2.155727 4.21498,-6.918438 2.34432,-1.474784 -0.31569,5.388801 -8.87047,14.406042 -10.35123,4.937905 -3.16087,-7.429305 -2.17753,9.471338 -6.51645,3.038294 -2.04518,0.04083 -6.61327,4.315519 -7.26735,-1.347627 -0.18678,-6.109624 2.27827,-12.005789 3.18069,-17.924052 -5.84838,1.11847 -7.08346,11.836537 -8.42253,17.461018 -0.0171,3.513902 -3.3473,3.931038 -4.36309,1.326409 -2.60477,3.415159 -6.7312,2.337801 -7.18015,-1.878083 -4.52966,2.168404 -9.35253,4.809509 -14.1365,4.844579 -2.08493,4.464702 0.005,12.283392 -4.30563,14.75152 l -0.55311,-0.664926 z m 11.23647,-21.959946 c 1.19241,-4.183564 3.56898,-10.882005 0.24872,-14.129207 -3.54806,4.393202 -5.03584,10.422157 -5.61143,15.978153 1.1863,5.174699 4.5556,0.729476 5.36271,-1.848946 z m 41.11983,-7.614269 c 2.43672,-2.144305 1.78227,-9.28508 -0.91637,-3.357858 -2.12042,2.796676 -4.15201,10.750478 0.91637,3.357858 z M 154.82429,10.625 c -0.74384,-6.0818846 -3.89027,13.072486 -0.65716,3.832031 0.36054,-1.246044 0.63275,-2.530126 0.65716,-3.832031 z M 75.25,57.25 c -3.291783,-3.542048 1.423066,-14.09559 -5.644645,-10.766046 -2.73321,-4.912047 -11.01891,4.557193 -10.905402,-4.44951 -0.642058,-4.405478 -3.719472,6.977508 -7.787752,4.132358 -4.628937,-3.847086 2.313706,-10.865625 -0.249996,-15.916335 -3.04547,4.452271 -3.343453,10.541794 -6.174243,15.284448 -2.378781,0.605836 1.144176,-7.417213 1.507673,-9.667353 3.193831,-5.961531 0.264014,-15.215975 4.728684,-19.617559 2.906676,2.813147 -0.510303,9.774516 3.429765,13.561338 2.150097,4.041825 -3.061868,11.06896 -0.415748,13.450723 4.457599,-5.807624 6.304457,-13.23289 10.750923,-19.030508 3.836345,-2.624569 12.175314,-2.195813 8.395539,4.439195 -0.308849,4.374021 -2.171933,11.034102 -0.925677,14.127333 4.553115,-8.054255 4.996972,-17.656408 7.51844,-26.439987 C 80.174802,12.957406 83.574547,0.44909379 87.528888,7.7838486 88.227954,17.62469 82.54775,26.256727 79.2779,35.162959 c -1.769686,3.011463 -1.976725,9.806627 2.306342,4.714098 7.319604,-9.863546 5.571275,-23.384164 11.856052,-33.6982987 6.150192,-2.9107999 4.215526,8.4095857 2.724046,11.8234987 -1.954078,8.152174 -7.848357,15.130072 -8.114593,23.678393 4.343383,0.97103 5.989285,-8.710167 8.817819,-7.124591 -2.10573,5.899298 -9.01932,10.02681 -4.643655,16.777119 1.950804,7.474705 -9.710264,9.395577 -8.362773,1.076388 C 83.03533,49.49451 86.080069,41.326955 82.893079,41.571162 77.016341,45.760394 87.080352,54.241078 78.993224,58.130837 77.71922,59.249399 76.164953,58.319615 75.25,57.25 Z m 4.730859,-5.136271 c 0.575216,-2.359971 -2.823716,-8.217382 -2.44115,-2.440265 -0.572312,2.780648 1.09566,10.639527 2.44115,2.440265 z m 10,0 c 0.575216,-2.359971 -2.823716,-8.217382 -2.44115,-2.440265 -0.572312,2.780648 1.09566,10.639527 2.44115,2.440265 z M 67.002543,38.012551 c 1.03023,-2.984699 3.924349,-12.62139 -0.513001,-12.172101 -2.929529,4.756349 -5.502377,12.378991 -2.715471,17.197426 1.745491,-1.055039 2.367234,-3.301559 3.228472,-5.025325 z M 85.719866,9.0531994 C 83.461651,13.028315 81.645986,19.151075 81.611471,22.975172 83.444699,18.550604 85.28092,13.841094 85.719866,9.0531994 Z m 10,0 C 93.461651,13.028315 91.645986,19.151075 91.611471,22.975172 93.444699,18.550604 95.28092,13.841094 95.719866,9.0531994 Z M 124.3452,18.701782 c -1.96351,-5.595568 7.69351,-2.455604 1.79783,0.543354 -0.60298,0.484234 -1.53139,0.136023 -1.79783,-0.543354 z"
       id="path19112"
       inkscape:connector-curvature="0" />
    <path
       style="fill:#9e9e9e"
       d="m 24.843561,63.281156 c -4.529088,-2.449882 -4.244352,-11.830383 1.686071,-11.977312 0.40238,3.671179 -5.676703,10.503968 2.162576,11.128077 6.493904,-0.873222 5.696521,-9.65244 7.576358,-14.432058 2.404359,-7.41897 -6.891741,1.369091 -10.255139,-2.712129 C 21.280287,41.422402 17.635389,36.047538 10.64072,36.366115 3.0028238,34.5888 -2.8416748,25.707451 0.89264901,18.228244 3.4712891,13.350394 10.491095,9.9069363 15.660628,12.742072 14.943432,16.424091 4.8214905,13.020377 3.5431503,19.269047 -0.54418147,27.173188 8.0821942,36.165862 16.184101,35 c 3.050491,1.015426 2.25107,-2.195319 2.592288,-4.15395 C 19.449949,20.511671 21.931664,8.6095607 31.345038,2.7378815 35.631215,0.14722091 43.366107,0.55375197 44.54159,6.4294376 46.837237,18.267169 38.597899,30.397254 27.989952,35.140012 c -8.153563,0.200841 -2.813459,9.920582 2.460677,9.754177 7.122989,-1.172366 7.14651,-9.847478 11.008637,-14.396297 4.320006,-0.731902 -0.980991,7.403879 -0.536555,10.204012 -1.640909,6.625322 -2.259107,13.751493 -5.570989,19.801344 -2.335194,3.142452 -6.924351,4.586789 -10.508161,2.777908 z M 34.852819,26.88989 C 39.511149,21.502196 43.994308,13.796596 41.261541,6.5619507 38.507651,-0.60400756 30.266295,4.7795115 28.27561,9.6248862 23.340784,17.152042 22.739708,26.275711 22.15861,34.98896 c 4.985529,-1.318403 9.252418,-4.285686 12.694209,-8.09907 z m 68.800161,15.712869 c 1.39775,-6.821792 2.03147,-13.967592 4.7058,-20.413252 0.0972,3.302715 0.89486,5.045125 3.61879,1.557986 6.93645,-2.373128 4.6302,10.100871 3.3184,14.095857 -1.34602,2.462633 -4.75435,9.810455 0.52032,4.886202 1.57746,3.290226 -13.24147,5.257543 -6.7478,0.470815 4.45409,-3.654061 5.72469,-10.157457 5.42122,-15.688059 -3.22405,-6.758041 -7.12172,4.669747 -7.4604,8.227719 -1.95219,8.234816 -2.45307,16.801136 -4.9226,24.902791 -2.153509,-1.024141 0.64735,-9.595754 0.77241,-13.394041 0.24798,-1.550311 0.50634,-3.098959 0.77386,-4.646018 z M 75.089944,56.983376 C 73.05764,50.998485 74.742699,44.413785 75.248617,38.255308 76.948463,27.838075 78.411623,17.109452 82.82412,7.4305683 c 6.194805,-5.8009438 5.057259,7.1494567 3.179186,10.4774617 -2.676607,8.445663 -7.293902,16.270108 -8.809103,25.079861 1.514442,-0.970065 7.449007,-5.390253 5.840159,-1.805586 -8.309356,2.73041 3.827411,10.011836 -2.627254,14.774725 -1.017128,2.109099 -3.780111,3.531031 -5.317164,1.026346 z m 4.890915,-4.869647 c 0.598131,-3.258368 -3.014561,-8.0584 -3.315871,-2.255359 -1.842387,2.980249 2.127383,9.10788 3.223973,3.380145 l 0.0919,-1.124786 0,0 z m 4.455126,-35.263517 c 1.181325,-2.275072 2.40824,-12.8357035 -0.165763,-5.813461 -0.741406,3.794192 -3.47,9.776306 -2.482252,12.537084 1.273778,-2.056856 1.928868,-4.434618 2.648015,-6.723623 z m 0.707253,40.197378 c -1.99077,-6.270986 -0.297962,-13.075755 0.23173,-19.496586 1.696085,-10.180935 2.87718,-20.807246 7.502858,-30.1508204 6.65396,-6.1662799 4.502293,7.7520234 2.88917,11.0576904 -2.206536,7.958321 -7.278433,15.19209 -7.999569,23.49316 4.150411,0.808121 6.455888,-7.8664 8.432526,-6.717099 -1.791541,5.506752 -9.897421,9.123313 -3.799413,15.251957 0.309125,2.912308 -3.920228,10.892958 -7.257302,6.561698 z m 4.837621,-4.933861 c 0.598131,-3.258367 -3.014561,-8.0584 -3.315871,-2.255359 -1.842388,2.980249 2.127383,9.10788 3.223974,3.380145 l 0.0919,-1.124786 0,0 z m 4.455126,-35.263517 c 1.181325,-2.275072 2.40824,-12.8357035 -0.165763,-5.813461 -0.741406,3.794192 -3.47,9.776306 -2.482252,12.537084 1.273778,-2.056856 1.928868,-4.434618 2.648015,-6.723623 z M 45.757761,36.827381 c 2.052187,-6.123165 2.936683,-12.534244 3.359427,-18.939026 2.782219,-4.089502 1.714937,5.937079 3.02637,7.805991 4.296293,5.337005 1.455881,11.696215 0.356442,17.609179 3.775776,-1.360807 6.046956,-9.328005 8.637704,-13.476336 1.092461,-4.314923 7.110257,-9.803238 9.513698,-5.25738 4.873345,-5.519609 1.613631,6.979268 1.143883,9.846016 -1.205577,3.84431 -0.524832,8.400355 1.700802,9.47268 -1.98023,4.148824 -5.006138,1.16028 -5.866614,-1.331482 -2.324378,4.852756 -8.628393,4.395443 -8.91998,-1.638603 -0.871432,-3.031512 -2.243888,5.162692 -4.805886,4.803279 -8.392729,1.658831 -1.508075,-9.802293 -2.902214,-14.224348 -1.814516,-2.556847 -2.936237,6.4249 -4.127367,8.377366 -0.47371,2.672922 -4.446161,9.779595 -2.769059,2.937379 0.454851,-2.019825 1.029267,-4.01113 1.652794,-5.984715 z M 66.107784,40.3125 c 1.315449,-4.24419 6.301636,-13.786831 0.439928,-14.947059 -3.332425,5.069235 -5.462988,12.46527 -3.003867,18.186417 1.534268,-0.01849 1.943955,-2.149212 2.563939,-3.239358 z m 54.982686,4.375 c -1.42468,-7.141958 0.59948,-14.350865 2.81493,-21.072073 3.11532,0.739972 -0.40975,9.193601 -0.6272,12.804304 -1.58838,2.612325 -0.34089,10.72634 2.93077,5.371445 3.13822,-5.320237 4.85927,-11.36804 5.42967,-17.467851 3.52984,-3.049862 2.36512,7.101215 1.27023,9.295816 -1.38446,3.296356 -1.84632,12.251461 -4.99387,11.804687 0.0655,-2.455553 2.09753,-6.723451 -0.57783,-2.555597 -1.01682,1.780609 -5.29152,5.485535 -6.2467,1.819269 z m 15.74094,0.241966 c -0.54857,-6.416671 2.81501,-12.452861 2.72226,-18.838409 -0.66839,-2.770515 -6.0238,3.167082 -2.38006,-1.115448 5.50136,-6.059846 5.88316,4.079539 3.83717,7.604759 -0.54459,2.774914 -4.29715,13.180892 0.85923,10.938226 3.71609,-4.272199 4.88235,-8.401648 5.23031,-14.203352 1.56165,-7.277029 2.42332,-14.89115 5.59634,-21.684737 6.1427,-4.8971669 5.02861,6.358929 1.55773,8.789426 1.01115,-2.041304 3.05295,-13.0128797 -0.61352,-6.4658587 -0.74758,3.0503507 -3.32793,8.8779987 -1.68595,10.7760607 2.94456,-5.273154 1.52089,3.763819 -1.37702,2.426283 0.14087,6.955283 7.80907,-5.539824 6.9221,2.663094 0.0542,6.131492 -9.04941,10.753683 -3.91282,16.893102 1.98838,3.856337 6.38815,-5.906646 4.38411,-0.307545 -2.28584,4.96279 -7.39855,4.089185 -7.83225,-1.575891 -0.0268,-5.808088 -3.64773,-1.642452 -2.73767,1.835422 -1.24157,6.695723 -2.77438,-0.521463 -2.60083,-1.686099 -1.68454,2.491101 -4.92566,7.649713 -7.96913,3.950967 z M 154.2005,30.153271 c 2.69677,-3.140499 1.48913,-7.055087 -2.27579,-3.313199 -3.04378,-0.626793 -2.1228,6.60656 -2.47514,8.184577 2.16881,-0.814211 3.55035,-3.010409 4.75093,-4.871378 z M 125,16.875 c 3.14117,-7.070507 3.0082,6.927121 0,0 z"
       id="path19110"
       inkscape:connector-curvature="0" />
    <path
       style="fill:#ca7188"
       d="m 22.475465,61.204156 c -3.643531,-3.422489 2.822053,-13.092168 4.532408,-8.077198 -4.687099,3.107209 -3.325815,10.68675 3.086305,8.565805 5.860411,-3.497671 6.168931,-11.943891 7.157998,-18.108527 -2.697944,0.646525 -9.425658,5.294531 -13.386818,0.673124 -3.183551,-4.037944 -5.048134,-9.031105 -11.3351,-7.938484 C 5.2084797,35.53759 -2.0860574,28.35313 0.54653655,20.670215 1.7908296,14.50995 7.7389388,11.294119 13.689071,12.633116 19.375128,15.116336 5.9697587,12.858908 5.1515351,16.930056 0.33463328,21.824964 1.8490061,31.605626 8.8809824,33.56143 13.098133,35.855581 20.708817,38.240059 19.258971,30.503016 19.821576,20.194936 22.439097,8.0090817 32.054313,2.4076696 36.62678,-0.24097292 43.884448,1.609202 44.692606,7.4129295 46.632553,20.022973 36.917201,31.889653 25.353604,35.788625 c -6.99846,1.990449 3.651622,13.262754 8.277066,8.223096 5.05419,-2.210601 4.437308,-11.170348 8.766195,-12.420412 -0.08917,5.73201 -2.564605,11.744109 -3.388709,17.594526 -1.372567,5.770492 -3.275603,14.093285 -10.613079,14.322247 -2.237276,0.296756 -4.92081,0.115097 -5.919612,-2.303926 z M 30.196746,31.39392 C 37.480015,26.308991 42.864135,17.409227 42.314371,8.3566292 41.454193,-0.23058619 30.948012,2.7824381 28.21196,8.5073897 23.430397,16.099725 22.035644,25.541347 22.914624,34.353052 c 1.657244,1.652355 5.334277,-2.373353 7.282122,-2.959132 z m 73.456234,11.208839 c 1.39775,-6.821792 2.03147,-13.967592 4.7058,-20.413252 0.0972,3.302715 0.89486,5.045125 3.61879,1.557986 6.93645,-2.373128 4.6302,10.100871 3.3184,14.095857 -1.34602,2.462633 -4.75435,9.810455 0.52032,4.886202 1.57746,3.290226 -13.24147,5.257543 -6.7478,0.470815 4.45409,-3.654061 5.72469,-10.157457 5.42122,-15.688059 -3.22405,-6.758041 -7.12172,4.669747 -7.4604,8.227719 -1.95219,8.234816 -2.45307,16.801136 -4.9226,24.902791 -2.153509,-1.024141 0.64735,-9.595754 0.77241,-13.394041 0.24798,-1.550311 0.50634,-3.098959 0.77386,-4.646018 z M 74.694824,54.754477 C 72.923037,41.413706 77.741907,28.491815 80.256092,15.574747 80.082118,12.088076 85.235311,1.8719137 87.341855,8.7887957 86.730399,20.079474 80.075767,29.82102 77.580626,40.646835 79.121879,45.059999 86.28221,36.34449 86.281083,32.828323 88.056461,24.407269 89.739556,15.86978 92.803184,7.8125 c 6.894885,-5.215305 4.087985,7.274488 2.645168,10.619743 -2.125749,7.834842 -6.649542,14.946386 -7.920171,22.997217 1.40682,3.693133 9.893906,-7.468282 5.226399,-1.361252 -6.394099,4.125467 1.794393,11.788395 -3.463678,16.78091 -7.095793,1.767121 -4.727294,-8.377687 -4.542973,-12.647841 0.0085,-1.735654 0.820575,-5.081575 0.34189,-5.841055 -2.096469,2.394602 -7.202149,4.715206 -4.513967,8.372774 2.076174,4.023907 -1.102497,16.227512 -5.881028,8.021481 z m 5.068132,-3.095352 C 80.458403,47.611358 75.650984,44.233839 76.25,50.3125 c -0.941894,5.031772 4.231752,9.710408 3.512956,1.346625 z m 10,0 C 90.458403,47.611358 85.650984,44.233839 86.25,50.3125 c -0.941894,5.031772 4.231752,9.710408 3.512956,1.346625 z m -6.019453,-32.2646 C 84.295594,16.825626 87.29185,9.7501144 85.214434,9.2399359 82.680412,14.924863 81.05471,21.055699 80.021779,27.181244 c 1.672878,-0.444862 2.78282,-5.635535 3.721724,-7.786719 z m 10,0 C 94.295594,16.825626 97.29185,9.7501144 95.214434,9.2399359 92.680412,14.924863 91.054709,21.055699 90.021779,27.181244 c 1.672878,-0.444862 2.78282,-5.635535 3.721724,-7.786719 z M 43.896409,45.625 c 1.775972,-8.502082 5.231363,-16.771614 4.952224,-25.619883 -0.43566,-3.498087 2.293372,-5.02468 2.302734,-0.741651 -0.718039,5.630504 3.867367,9.879587 2.269592,15.569158 -0.38055,2.866949 -1.246755,12.908892 2.224185,5.993497 3.71818,-5.725649 5.389344,-12.99331 10.631326,-17.58689 2.78029,-0.412518 5.102347,2.557995 6.421999,-1.038184 1.032124,6.638689 -2.58517,13.131247 -2.19477,19.844047 0.48046,2.041484 4.709975,0.776577 1.310754,3.875396 -4.404068,2.764251 -2.116014,-7.37198 -3.991212,-4.154902 -1.829658,5.042552 -9.306348,5.92917 -8.705054,-1.024082 1.077571,-8.22714 -3.483447,6.096751 -7.542504,5.389861 -4.176417,-4.422301 1.886275,-11.087407 -0.188217,-16.421065 -3.572384,-0.424164 -4.050747,9.678376 -6.235907,13.264196 -0.399859,0.804866 -0.619021,2.176554 -1.25515,2.650502 z m 23.087655,-6.318222 c 1.230876,-3.183263 4.647116,-13.461111 -0.407365,-13.105266 -2.926625,4.572722 -5.173587,10.166695 -4.882083,15.654162 1.615603,4.450032 4.589693,-0.454698 5.289448,-2.548896 z M 121.09047,44.6875 c -1.42468,-7.141958 0.59948,-14.350865 2.81493,-21.072073 3.11532,0.739972 -0.40975,9.193601 -0.6272,12.804304 -1.58838,2.612325 -0.34089,10.72634 2.93077,5.371445 3.13822,-5.320237 4.85927,-11.36804 5.42967,-17.467851 3.52984,-3.049862 2.36512,7.101215 1.27023,9.295816 -1.38446,3.296356 -1.84632,12.251461 -4.99387,11.804687 0.0655,-2.455553 2.09753,-6.723451 -0.57783,-2.555597 -1.01682,1.780609 -5.29152,5.485535 -6.2467,1.819269 z m 15.74094,0.241966 c -0.54857,-6.416671 2.81501,-12.452861 2.72226,-18.838409 -0.66839,-2.770515 -6.0238,3.167082 -2.38006,-1.115448 5.50136,-6.059846 5.88316,4.079539 3.83717,7.604759 -0.54459,2.774914 -4.29715,13.180892 0.85923,10.938226 3.71609,-4.272199 4.88235,-8.401648 5.23031,-14.203352 1.56165,-7.277029 2.42332,-14.89115 5.59634,-21.684737 6.1427,-4.8971669 5.02861,6.358929 1.55773,8.789426 1.01115,-2.041304 3.05295,-13.0128797 -0.61352,-6.4658587 -0.74758,3.0503507 -3.32793,8.8779987 -1.68595,10.7760607 2.94456,-5.273154 1.52089,3.763819 -1.37702,2.426283 0.14087,6.955283 7.80907,-5.539824 6.9221,2.663094 0.0542,6.131492 -9.04941,10.753683 -3.91282,16.893102 1.98838,3.856337 6.38815,-5.906646 4.38411,-0.307545 -2.28584,4.96279 -7.39855,4.089185 -7.83225,-1.575891 -0.0268,-5.808088 -3.64773,-1.642452 -2.73767,1.835422 -1.24157,6.695723 -2.77438,-0.521463 -2.60083,-1.686099 -1.68454,2.491101 -4.92566,7.649713 -7.96913,3.950967 z M 154.2005,30.153271 c 2.69677,-3.140499 1.48913,-7.055087 -2.27579,-3.313199 -3.04378,-0.626793 -2.1228,6.60656 -2.47514,8.184577 2.16881,-0.814211 3.55035,-3.010409 4.75093,-4.871378 z M 125,16.875 c 3.14117,-7.070507 3.0082,6.927121 0,0 z"
       id="path19108"
       inkscape:connector-curvature="0" />
    <path
       style="fill:#bd4c68"
       d="m 22.475465,61.204156 c -3.643531,-3.422489 2.822053,-13.092168 4.532408,-8.077198 -4.687099,3.107209 -3.325815,10.68675 3.086305,8.565805 5.860411,-3.497671 6.168931,-11.943891 7.157998,-18.108527 -2.697944,0.646525 -9.425658,5.294531 -13.386818,0.673124 -3.183551,-4.037944 -5.048134,-9.031105 -11.3351,-7.938484 C 5.2084797,35.53759 -2.0860574,28.35313 0.54653655,20.670215 1.7908296,14.50995 7.7389388,11.294119 13.689071,12.633116 19.375128,15.116336 5.9697587,12.858908 5.1515351,16.930056 0.33463328,21.824964 1.8490061,31.605626 8.8809824,33.56143 13.098133,35.855581 20.708817,38.240059 19.258971,30.503016 19.821576,20.194936 22.439097,8.0090817 32.054313,2.4076696 36.62678,-0.24097292 43.884448,1.609202 44.692606,7.4129295 46.632553,20.022973 36.917201,31.889653 25.353604,35.788625 c -6.99846,1.990449 3.651622,13.262754 8.277066,8.223096 5.05419,-2.210601 4.437308,-11.170348 8.766195,-12.420412 -0.08917,5.73201 -2.564605,11.744109 -3.388709,17.594526 -1.372567,5.770492 -3.275603,14.093285 -10.613079,14.322247 -2.237276,0.296756 -4.92081,0.115097 -5.919612,-2.303926 z M 30.196746,31.39392 C 37.480015,26.308991 42.864135,17.409227 42.314371,8.3566292 41.454193,-0.23058619 30.948012,2.7824381 28.21196,8.5073897 23.430397,16.099725 22.035644,25.541347 22.914624,34.353052 c 1.657244,1.652355 5.334277,-2.373353 7.282122,-2.959132 z M 101.58457,57.1875 c 1.83275,-10.99567 2.97859,-22.164429 5.8039,-32.959909 2.14646,2.803617 -1.21587,10.902029 -0.85286,15.742863 -1.41716,7.598409 6.17199,2.92116 6.54434,-1.56337 1.89672,-4.833646 3.17981,-11.346596 -1.24536,-14.726755 6.10189,-2.775673 4.49663,8.49768 3.62537,12.05918 -0.66057,5.41071 -4.30061,13.035172 -9.88256,9.38893 -2.22776,4.812303 -1.68116,12.154796 -4.15604,15.801004 -0.18519,-1.244602 0.002,-2.506288 0.16321,-3.741943 z M 74.694824,54.754477 C 72.923037,41.413706 77.741907,28.491815 80.256092,15.574747 80.082118,12.088076 85.235311,1.8719137 87.341855,8.7887957 86.730399,20.079474 80.075767,29.82102 77.580626,40.646835 79.121879,45.059999 86.28221,36.34449 86.281083,32.828323 88.056461,24.407269 89.739556,15.86978 92.803184,7.8125 c 6.894885,-5.215305 4.087985,7.274488 2.645168,10.619743 -2.125749,7.834842 -6.649542,14.946386 -7.920171,22.997217 1.40682,3.693133 9.893906,-7.468282 5.226399,-1.361252 -6.394099,4.125467 1.794393,11.788395 -3.463678,16.78091 -7.095793,1.767121 -4.727294,-8.377687 -4.542973,-12.647841 0.0085,-1.735654 0.820575,-5.081575 0.34189,-5.841055 -2.096469,2.394602 -7.202149,4.715206 -4.513967,8.372774 2.076174,4.023907 -1.102497,16.227512 -5.881028,8.021481 z m 5.068132,-3.095352 C 80.458403,47.611358 75.650984,44.233839 76.25,50.3125 c -0.941894,5.031772 4.231752,9.710408 3.512956,1.346625 z m 10,0 C 90.458403,47.611358 85.650984,44.233839 86.25,50.3125 c -0.941894,5.031772 4.231752,9.710408 3.512956,1.346625 z m -6.019453,-32.2646 C 84.295594,16.825626 87.29185,9.7501144 85.214434,9.2399359 82.680412,14.924863 81.05471,21.055699 80.021779,27.181244 c 1.672878,-0.444862 2.78282,-5.635535 3.721724,-7.786719 z m 10,0 C 94.295594,16.825626 97.29185,9.7501144 95.214434,9.2399359 92.680412,14.924863 91.054709,21.055699 90.021779,27.181244 c 1.672878,-0.444862 2.78282,-5.635535 3.721724,-7.786719 z M 43.896409,45.625 c 1.775972,-8.502082 5.231363,-16.771614 4.952224,-25.619883 -0.43566,-3.498087 2.293372,-5.02468 2.302734,-0.741651 -0.718039,5.630504 3.867367,9.879587 2.269592,15.569158 -0.38055,2.866949 -1.246755,12.908892 2.224185,5.993497 3.71818,-5.725649 5.389344,-12.99331 10.631326,-17.58689 2.78029,-0.412518 5.102347,2.557995 6.421999,-1.038184 1.032124,6.638689 -2.58517,13.131247 -2.19477,19.844047 0.48046,2.041484 4.709975,0.776577 1.310754,3.875396 -4.404068,2.764251 -2.116014,-7.37198 -3.991212,-4.154902 -1.829658,5.042552 -9.306348,5.92917 -8.705054,-1.024082 1.077571,-8.22714 -3.483447,6.096751 -7.542504,5.389861 -4.176417,-4.422301 1.886275,-11.087407 -0.188217,-16.421065 -3.572384,-0.424164 -4.050747,9.678376 -6.235907,13.264196 -0.399859,0.804866 -0.619021,2.176554 -1.25515,2.650502 z m 23.087655,-6.318222 c 1.230876,-3.183263 4.647116,-13.461111 -0.407365,-13.105266 -2.926625,4.572722 -5.173587,10.166695 -4.882083,15.654162 1.615603,4.450032 4.589693,-0.454698 5.289448,-2.548896 z m 55.099266,6.109888 c -2.0368,-5.364632 -2.6381,-9.575279 0.15381,-15.295424 0.65238,-2.772477 3.35951,-8.30878 2.13312,-1.996242 -0.13091,5.382644 -3.08684,12.310248 -0.87192,16.728287 5.86693,-2.289363 -0.22579,3.430079 -1.41501,0.563379 z m 6.24713,-4.11533 c 0.72566,-5.773805 2.79857,-11.438112 4.13898,-16.907449 1.95335,4.435858 -0.8415,10.907137 -1.50594,16.000446 -0.089,3.264898 -3.29925,8.57248 -2.68493,2.125654 l 0.0519,-1.218651 0,0 z m 8.76149,3.188282 c -0.63825,-6.365657 3.13326,-12.411558 2.44254,-18.685512 -5.03373,-3.140049 5.67382,-2.806697 2.59809,1.612449 -0.52163,5.462671 -5.26253,12.524509 -1.57362,17.166622 5.17009,-2.04623 -2.72232,4.679274 -3.46701,-0.09356 z M 145.45369,41.25 c 1.51006,-11.159891 3.47305,-22.405472 7.2672,-33.0334553 2.23836,-5.4743638 7.3484,4.3818843 2.98527,-0.2161629 -4.23901,1.5328596 -4.19489,10.2377172 -4.88055,14.8997072 0.27036,2.642754 2.58523,4.831503 -0.96525,4.21364 -1.29943,4.894585 -0.67292,8.466285 2.06013,11.937863 -0.62097,4.647688 3.95601,6.25945 5.21954,4.022362 -5.12715,7.542543 -5.87104,-3.476059 -8.90579,-5.415876 -0.26614,1.988108 -3.06152,12.050046 -2.90213,4.984622 l 0.0539,-0.660828 0.0682,-0.731872 -5.4e-4,0 z m 7.29042,-6.875 c 1.54238,-3.675517 4.71946,-7.620171 1.71295,-10.684451 5.93611,-3.211574 1.47473,9.089717 -1.68681,10.873904 L 152.74411,34.375 Z M 125,16.948771 c 3.0885,-6.9813289 2.6198,5.063114 0,0 z"
       id="path19106"
       inkscape:connector-curvature="0" />
    <path
       style="fill:#b63857"
       d="m 22.475465,61.204156 c -3.643531,-3.422489 2.822053,-13.092168 4.532408,-8.077198 -4.687099,3.107209 -3.325815,10.68675 3.086305,8.565805 5.860411,-3.497671 6.168931,-11.943891 7.157998,-18.108527 -2.697944,0.646525 -9.425658,5.294531 -13.386818,0.673124 -3.183551,-4.037944 -5.048134,-9.031105 -11.3351,-7.938484 C 5.2084797,35.53759 -2.0860574,28.35313 0.54653655,20.670215 1.7908296,14.50995 7.7389388,11.294119 13.689071,12.633116 19.375128,15.116336 5.9697587,12.858908 5.1515351,16.930056 0.33463328,21.824964 1.8490061,31.605626 8.8809824,33.56143 13.098133,35.855581 20.708817,38.240059 19.258971,30.503016 19.821576,20.194936 22.439097,8.0090817 32.054313,2.4076696 36.62678,-0.24097292 43.884448,1.609202 44.692606,7.4129295 46.632553,20.022973 36.917201,31.889653 25.353604,35.788625 c -6.99846,1.990449 3.651622,13.262754 8.277066,8.223096 5.05419,-2.210601 4.437308,-11.170348 8.766195,-12.420412 -0.08917,5.73201 -2.564605,11.744109 -3.388709,17.594526 -1.372567,5.770492 -3.275603,14.093285 -10.613079,14.322247 -2.237276,0.296756 -4.92081,0.115097 -5.919612,-2.303926 z M 30.196746,31.39392 C 37.480015,26.308991 42.864135,17.409227 42.314371,8.3566292 41.454193,-0.23058619 30.948012,2.7824381 28.21196,8.5073897 23.430397,16.099725 22.035644,25.541347 22.914624,34.353052 c 1.657244,1.652355 5.334277,-2.373353 7.282122,-2.959132 z M 101.54579,58.75 c -0.32719,-2.68198 2.31034,-13.7528 1.83313,-5.990723 0.0406,1.380717 -1.80676,11.223287 -1.83313,5.990723 z M 74.694824,54.754477 C 72.923037,41.413706 77.741907,28.491815 80.256092,15.574747 80.082118,12.088076 85.235311,1.8719137 87.341855,8.7887957 86.730399,20.079474 80.075767,29.82102 77.580626,40.646835 79.121879,45.059999 86.28221,36.34449 86.281083,32.828323 88.056461,24.407269 89.739556,15.86978 92.803184,7.8125 c 6.894885,-5.215305 4.087985,7.274488 2.645168,10.619743 -2.125749,7.834842 -6.649542,14.946386 -7.920171,22.997217 1.40682,3.693133 9.893906,-7.468282 5.226399,-1.361252 -6.394099,4.125467 1.794393,11.788395 -3.463678,16.78091 -7.095793,1.767121 -4.727294,-8.377687 -4.542973,-12.647841 0.0085,-1.735654 0.820575,-5.081575 0.34189,-5.841055 -2.096469,2.394602 -7.202149,4.715206 -4.513967,8.372774 2.076174,4.023907 -1.102497,16.227512 -5.881028,8.021481 z m 5.068132,-3.095352 C 80.458403,47.611358 75.650984,44.233839 76.25,50.3125 c -0.941894,5.031772 4.231752,9.710408 3.512956,1.346625 z m 10,0 C 90.458403,47.611358 85.650984,44.233839 86.25,50.3125 c -0.941894,5.031772 4.231752,9.710408 3.512956,1.346625 z m -6.019453,-32.2646 C 84.295594,16.825626 87.29185,9.7501144 85.214434,9.2399359 82.680412,14.924863 81.05471,21.055699 80.021779,27.181244 c 1.672878,-0.444862 2.78282,-5.635535 3.721724,-7.786719 z m 10,0 C 94.295594,16.825626 97.29185,9.7501144 95.214434,9.2399359 92.680412,14.924863 91.054709,21.055699 90.021779,27.181244 c 1.672878,-0.444862 2.78282,-5.635535 3.721724,-7.786719 z M 104.35124,43.125 c 1.08097,-6.202644 0.9248,-12.734501 3.04714,-18.687198 0.8592,6.202222 -1.91292,12.73741 -0.49194,19.031009 5.20674,4.079773 7.23835,-7.786948 7.78915,-11.661751 -0.16999,-2.577081 0.0286,-11.007134 1.50305,-4.262888 0.52436,6.477466 -2.17779,12.936895 -4.48968,18.557801 -3.30078,1.195737 -6.25913,-3.968785 -7.57648,0.159265 -0.0692,-1.052046 0.10102,-2.095591 0.21876,-3.136238 z m -60.454831,2.5 c 1.775972,-8.502082 5.231363,-16.771614 4.952224,-25.619883 -0.43566,-3.498087 2.293372,-5.02468 2.302734,-0.741651 -0.718039,5.630504 3.867367,9.879587 2.269592,15.569158 -0.38055,2.866949 -1.246755,12.908892 2.224185,5.993497 3.71818,-5.725649 5.389344,-12.99331 10.631326,-17.58689 2.78029,-0.412518 5.102347,2.557995 6.421999,-1.038184 1.032124,6.638689 -2.58517,13.131247 -2.19477,19.844047 0.48046,2.041484 4.709975,0.776577 1.310754,3.875396 -4.404068,2.764251 -2.116014,-7.37198 -3.991212,-4.154902 -1.829658,5.042552 -9.306348,5.92917 -8.705054,-1.024082 1.077571,-8.22714 -3.483447,6.096751 -7.542504,5.389861 -4.176417,-4.422301 1.886275,-11.087407 -0.188217,-16.421065 -3.572384,-0.424164 -4.050747,9.678376 -6.235907,13.264196 -0.39344,0.790953 -0.628074,2.194518 -1.25515,2.650502 z m 23.087655,-6.318222 c 1.230876,-3.183263 4.647116,-13.461111 -0.407365,-13.105266 -2.926625,4.572722 -5.173587,10.166695 -4.882083,15.654162 1.615603,4.450032 4.589693,-0.454698 5.289448,-2.548896 z m 54.974606,5.828597 c -1.8974,-6.52943 -0.11441,-13.630178 1.86153,-19.96441 2.23037,0.203131 -1.37694,10.323695 -1.06577,14.161905 -0.88074,0.761973 1.77726,9.628439 -0.79576,5.802505 z m 7.07034,-4.822875 c 1.534,-5.282093 0.69607,-11.674278 3.99218,-16.137718 0.90498,4.735522 -1.10763,9.838797 -1.8486,14.629974 -0.26647,2.929214 -3.24596,11.22714 -2.51321,3.813164 l 0.16025,-1.112701 0.20938,-1.192719 z m 8.77198,4.375 c -1.6351,-5.873783 2.42306,-11.737883 2.14385,-17.75 1.13155,-6.576323 2.53776,2.962309 0.75886,5.258159 -1.73719,4.134491 -1.21772,10.800897 -1.87406,13.666884 l -0.44558,-0.472284 -0.58307,-0.702759 0,0 z m 7.82666,-3.4375 c 1.45481,-10.640084 2.99876,-21.429264 6.58405,-31.5854711 -0.33555,-3.2370385 5.64869,-4.2790498 4.26711,-1.4585052 -6.13332,0.8040983 -4.61148,11.0424913 -6.46852,15.8191793 -1.3236,7.215347 -1.961,14.695341 -4.45292,21.604584 -0.43141,-1.331303 0.009,-2.95671 0.0703,-4.379787 z m 5.59471,0.541247 c -1.523,-2.24304 -0.42094,-8.46385 0.40091,-2.626695 -0.0789,4.567932 4.02158,6.087847 5.64563,3.771096 -2.67089,4.494263 -4.84204,3.777139 -6.04654,-1.144401 z m 3.19424,-10.326676 c 1.00293,-2.030295 3.50011,-11.024595 2.69869,-3.913795 0.0445,0.912107 -2.89817,5.501504 -2.69869,3.913795 z M 125,17.573771 c 2.96812,-5.044958 3.05447,3.155551 0,0 z"
       id="path19104"
       inkscape:connector-curvature="0" />
    <path
       style="fill:#5a5a5a"
       d="m 22.475465,61.204156 c -3.643531,-3.422489 2.822053,-13.092168 4.532408,-8.077198 -4.687099,3.107209 -3.325815,10.68675 3.086305,8.565805 5.860411,-3.497671 6.168931,-11.943891 7.157998,-18.108527 -2.697944,0.646525 -9.425658,5.294531 -13.386818,0.673124 -3.183551,-4.037944 -5.048134,-9.031105 -11.3351,-7.938484 C 5.2084797,35.53759 -2.0860574,28.35313 0.54653655,20.670215 1.7908296,14.50995 7.7389388,11.294119 13.689071,12.633116 19.375128,15.116336 5.9697587,12.858908 5.1515351,16.930056 0.33463328,21.824964 1.8490061,31.605626 8.8809824,33.56143 13.098133,35.855581 20.708817,38.240059 19.258971,30.503016 19.821576,20.194936 22.439097,8.0090817 32.054313,2.4076696 36.62678,-0.24097292 43.884448,1.609202 44.692606,7.4129295 46.632553,20.022973 36.917201,31.889653 25.353604,35.788625 c -6.99846,1.990449 3.651622,13.262754 8.277066,8.223096 5.05419,-2.210601 4.437308,-11.170348 8.766195,-12.420412 -0.08917,5.73201 -2.564605,11.744109 -3.388709,17.594526 -1.372567,5.770492 -3.275603,14.093285 -10.613079,14.322247 -2.237276,0.296756 -4.92081,0.115097 -5.919612,-2.303926 z M 30.196746,31.39392 C 37.480015,26.308991 42.864135,17.409227 42.314371,8.3566292 41.454193,-0.23058619 30.948012,2.7824381 28.21196,8.5073897 23.430397,16.099725 22.035644,25.541347 22.914624,34.353052 c 1.657244,1.652355 5.334277,-2.373353 7.282122,-2.959132 z M 74.694824,54.754477 C 72.923037,41.413706 77.741907,28.491815 80.256092,15.574747 80.082118,12.088076 85.235311,1.8719137 87.341855,8.7887957 86.730399,20.079474 80.075767,29.82102 77.580626,40.646835 79.121879,45.059999 86.28221,36.34449 86.281083,32.828323 88.056461,24.407269 89.739556,15.86978 92.803184,7.8125 c 6.894885,-5.215305 4.087985,7.274488 2.645168,10.619743 -2.125749,7.834842 -6.649542,14.946386 -7.920171,22.997217 1.40682,3.693133 9.893906,-7.468282 5.226399,-1.361252 -6.394099,4.125467 1.794393,11.788395 -3.463678,16.78091 -7.095793,1.767121 -4.727294,-8.377687 -4.542973,-12.647841 0.0085,-1.735654 0.820575,-5.081575 0.34189,-5.841055 -2.096469,2.394602 -7.202149,4.715206 -4.513967,8.372774 2.076174,4.023907 -1.102497,16.227512 -5.881028,8.021481 z m 5.068132,-3.095352 C 80.458403,47.611358 75.650984,44.233839 76.25,50.3125 c -0.941894,5.031772 4.231752,9.710408 3.512956,1.346625 z m 10,0 C 90.458403,47.611358 85.650984,44.233839 86.25,50.3125 c -0.941894,5.031772 4.231752,9.710408 3.512956,1.346625 z m -6.019453,-32.2646 C 84.295594,16.825626 87.29185,9.7501144 85.214434,9.2399359 82.680412,14.924863 81.05471,21.055699 80.021779,27.181244 c 1.672878,-0.444862 2.78282,-5.635535 3.721724,-7.786719 z m 10,0 C 94.295594,16.825626 97.29185,9.7501144 95.214434,9.2399359 92.680412,14.924863 91.054709,21.055699 90.021779,27.181244 c 1.672878,-0.444862 2.78282,-5.635535 3.721724,-7.786719 z M 43.896409,45.625 c 1.775972,-8.502082 5.231363,-16.771614 4.952224,-25.619883 -0.43566,-3.498087 2.293372,-5.02468 2.302734,-0.741651 -0.718039,5.630504 3.867367,9.879587 2.269592,15.569158 -0.38055,2.866949 -1.246755,12.908892 2.224185,5.993497 3.71818,-5.725649 5.389344,-12.99331 10.631326,-17.58689 2.78029,-0.412518 5.102347,2.557995 6.421999,-1.038184 1.032124,6.638689 -2.58517,13.131247 -2.19477,19.844047 0.48046,2.041484 4.709975,0.776577 1.310754,3.875396 -4.404068,2.764251 -2.116014,-7.37198 -3.991212,-4.154902 -1.829658,5.042552 -9.306348,5.92917 -8.705054,-1.024082 1.077571,-8.22714 -3.483447,6.096751 -7.542504,5.389861 -4.176417,-4.422301 1.886275,-11.087407 -0.188217,-16.421065 -3.572384,-0.424164 -4.050747,9.678376 -6.235907,13.264196 -0.399859,0.804866 -0.619021,2.176554 -1.25515,2.650502 z m 23.087655,-6.318222 c 1.230876,-3.183263 4.647116,-13.461111 -0.407365,-13.105266 -2.926625,4.572722 -5.173587,10.166695 -4.882083,15.654162 1.615603,4.450032 4.589693,-0.454698 5.289448,-2.548896 z"
       id="path19102"
       inkscape:connector-curvature="0" />
    <path
       style="fill:#0a0a0a"
       d="m 23.010054,60.625 c -5.351053,-2.624584 5.012625,-13.2207 3.86537,-7.221869 -5.702685,1.776727 -1.685031,8.582884 -0.284108,10.308858 C 24.982823,63.372046 23.920857,61.881857 23.010054,60.625 Z m 11.501838,-2.634825 c 3.428563,-8.475678 1.71506,-18.370031 6.545332,-26.363885 2.647506,1.431135 -1.937082,9.163131 -1.663552,12.908179 -1.288569,5.997636 -2.34198,12.322138 -5.623401,17.600169 -1.872548,1.533466 0.744065,-3.815792 0.741621,-4.144463 z m 41.321442,-1.323509 c -1.540509,-5.925042 0.0213,-12.244673 0.451906,-18.272077 1.491293,-10.048993 2.581673,-20.368665 6.337788,-29.874467 3.191759,-6.237736 5.491955,4.344728 4.541246,3.94349 -0.6567,-1.506284 -1.248443,-4.8567159 -1.943773,-5.2662878 -2.821539,6.9812828 -4.93976,14.4971758 -5.184123,22.0112128 0.953919,2.66779 -6.150721,11.892067 -0.348878,12.726142 3.347684,-1.357478 -2.659753,3.954962 0.925937,5.600093 0.933497,6.578244 -3.391848,-7.807875 -4.116006,-0.236601 -1.001832,1.587536 1.707084,11.775321 -0.664097,9.368495 z m 3.622032,-0.783076 c 4.32956,-6.336262 -1.19355,5.207192 0,0 z m 5.998853,-0.252894 C 84.327972,46.662779 86.442915,37.605598 87.676812,28.728105 89.203406,21.529767 89.943233,13.879014 93.43426,7.3157396 98.3576,3.225866 97.800645,17.236642 95.997441,9.0020869 95.329606,4.2268517 94.005168,11.116593 93.232097,12.43485 c -1.479066,5.471019 -3.240401,11.090101 -3.195719,16.773687 0.953919,2.66779 -6.150721,11.892067 -0.348878,12.726142 3.347684,-1.357478 -2.659753,3.954962 0.925937,5.600093 0.933497,6.578244 -3.391848,-7.807875 -4.116006,-0.236601 -0.799622,1.456477 1.540027,13.301095 -1.043212,8.332525 z m 4.001147,0.252894 c 4.329563,-6.336267 -1.193551,5.207193 0,0 z M 25.2862,45.413382 C 19.97329,41.619543 20.232689,33.989706 20.086147,28.096983 20.410421,18.200286 23.830688,6.5272335 33.514466,2.0372416 39.132852,-0.71091154 45.835985,4.686089 44.879811,10.743209 43.851781,20.741406 37.173683,29.838124 28.495618,34.655155 24.816329,34.331605 35.543513,29.52533 36.561817,26.355645 41.16824,20.649296 43.911824,12.6715 41.739185,5.4482592 37.601366,-1.3465635 28.965251,5.0817369 26.809281,10.447709 c -3.81986,7.102576 -5.398813,15.31336 -5.370878,23.320485 0.772741,2.299847 5.671525,0.521007 1.525117,3.345917 -2.342929,5.498283 8.487552,8.464783 7.943449,8.869456 -1.879996,0.05088 -3.814427,0.009 -5.620769,-0.570185 z M 50.50231,44.506019 C 49.373663,39.329835 54.822508,31.469916 50.11077,28.05654 48.451807,25.536424 47.907328,17.251925 51.143312,17.060883 c -2.043957,5.930731 2.332681,10.573788 2.545797,16.207027 0.136456,3.328875 -4.94247,14.533864 2.165478,9.430617 0.694323,0.510597 -4.359993,6.164626 -5.352277,1.807492 z M 60.820062,45.3125 c -2.17082,-7.422491 -0.694903,-16.623962 5.241685,-21.908757 2.663454,-1.409483 5.46893,2.307104 1.177708,1.207503 -4.740466,4.034189 -6.064916,10.935891 -5.930675,16.917097 -0.826868,6.409126 8.112399,-1.984561 3.178538,3.319257 -0.893968,1.044495 -2.741902,2.187804 -3.667256,0.4649 z m 8.763272,0.104162 c -2.533415,-4.870739 -2.247885,-8.69004 0.09049,-14.292505 0.273757,-2.406477 2.842071,-10.800967 2.437205,-3.885004 -0.389781,6.289542 -2.711026,12.663592 -1.302602,18.916323 l -0.419208,-0.05631 -0.80588,-0.6825 0,-4e-6 z M 3.6838016,31.804535 C -1.9697549,26.294666 0.30106837,15.294967 8.1970422,13.288107 9.968045,11.126606 18.263875,13.686347 13.122205,14.20096 6.3409244,11.802284 0.96257691,19.812797 1.936902,25.920633 1.0728279,29.718013 8.746358,33.598511 7.1833888,34.747858 5.8655124,33.964215 4.7389036,32.905683 3.6838016,31.804535 Z"
       id="path19100"
       inkscape:connector-curvature="0" />
  </g>
</svg>
