<?xml version="1.0" encoding="UTF-8" standalone="no"?>
<!-- Created with Inkscape (http://www.inkscape.org/) -->

<svg
   xmlns:dc="http://purl.org/dc/elements/1.1/"
   xmlns:cc="http://creativecommons.org/ns#"
   xmlns:rdf="http://www.w3.org/1999/02/22-rdf-syntax-ns#"
   xmlns:svg="http://www.w3.org/2000/svg"
   xmlns="http://www.w3.org/2000/svg"
   xmlns:sodipodi="http://sodipodi.sourceforge.net/DTD/sodipodi-0.dtd"
   xmlns:inkscape="http://www.inkscape.org/namespaces/inkscape"
   id="svg18884"
   version="1.1"
   inkscape:version="0.91 r13725"
   width="162.5"
   height="65"
   viewBox="0 0 162.5 65"
   sodipodi:docname="logo.svg">
  <metadata
     id="metadata18890">
    <rdf:RDF>
      <cc:Work
         rdf:about="">
        <dc:format>image/svg+xml</dc:format>
        <dc:type
           rdf:resource="http://purl.org/dc/dcmitype/StillImage" />
        <dc:title></dc:title>
      </cc:Work>
    </rdf:RDF>
  </metadata>
  <defs
     id="defs18888" />
  <sodipodi:namedview
     pagecolor="#ffffff"
     bordercolor="#666666"
     borderopacity="1"
     objecttolerance="10"
     gridtolerance="10"
     guidetolerance="10"
     inkscape:pageopacity="0"
     inkscape:pageshadow="2"
     inkscape:window-width="1215"
     inkscape:window-height="776"
     id="namedview18886"
     showgrid="false"
     inkscape:zoom="5.6568542"
     inkscape:cx="92.255606"
     inkscape:cy="31.68183"
     inkscape:window-x="65"
     inkscape:window-y="24"
     inkscape:window-maximized="1"
     inkscape:current-layer="svg18884" />
  <g
     id="g19098"
     transform="translate(0.5303301,0.176777)">
    <path
       style="fill:#da9cab"
       d="m 24.028132,63.05412 c -3.714796,-2.601945 -3.72359,-8.500135 -0.01654,-11.096651 3.849216,-2.696098 5.674174,-0.393232 2.334764,2.946178 -2.120158,2.120158 -2.387747,3.15049 -1.331022,5.125 3.267505,6.105389 8.794789,1.026708 10.574379,-9.716147 0.942412,-5.689046 0.637001,-6.056976 -3.285296,-3.957825 C 28.678042,48.295452 23.079315,45.666344 21.205589,41.142768 20.027644,38.298971 18.898664,37.5 16.058201,37.5 10.939859,37.5 4.4419864,34.535559 2.0383656,31.103909 -3.3271906,23.443505 1.63228,12.345591 10.55782,12.039743 13.409725,11.942018 15.587794,12.510631 15.911922,13.4375 16.282944,14.49846 15.020586,15 11.979167,15 -1.4770631,15 -0.15248559,32.793818 13.439454,34.616879 l 5.310546,0.712293 0,-5.590922 c 0,-11.810789 6.034489,-24.3820251 13.38949,-27.8934055 5.595405,-2.67132436 10.080948,-1.26590963 12.561455,3.9357676 1.859221,3.8988269 1.845152,4.7284209 -0.189658,11.1835789 -2.540865,8.060554 -9.344736,15.659751 -16.259547,18.16018 -5.061371,1.830215 -5.786348,4.575607 -2.09132,7.91956 4.53003,4.09962 10.163342,0.368734 12.617481,-8.356431 C 39.583416,31.823664 40.859111,30 42.056916,30 c 1.354939,0 1.700206,0.67572 1.117731,2.1875 -0.463553,1.203125 -1.879268,7.33284 -3.146033,13.62159 -2.701438,13.411065 -4.077333,16.39111 -8.31099,18.000745 -4.103702,1.560224 -4.428615,1.528291 -7.689491,-0.755715 z m 5.51458,-31.702369 C 35.039426,28.000019 39.559847,21.628266 41.27099,14.820176 43.121261,7.4585331 41.49748,3.75 36.423912,3.75 c -6.593961,0 -12.105006,9.190266 -13.496946,22.507629 -0.887296,8.489202 -0.03205,9.147746 6.615746,5.094122 z M 100.70231,61.375095 C 99.930115,60.125651 106.00002,23.5456 107.15305,22.5 c 0.37907,-0.34375 0.93357,0.05784 1.23222,0.892422 0.41503,1.159779 1.08731,1.177505 2.85237,0.07521 5.52988,-3.453466 8.2244,5.666851 4.38736,14.850175 -2.35413,5.634219 -2.34424,6.127742 0.0824,4.113792 2.85425,-2.368811 5.12432,-7.318433 6.12854,-13.362546 0.82641,-4.973949 2.52294,-7.626819 3.95902,-6.190741 0.34576,0.345756 -0.0256,3.954416 -0.82537,8.019245 -0.7997,4.064829 -1.21756,8.760139 -0.92858,10.434021 0.47047,2.725095 0.79659,2.455074 3.11789,-2.581575 1.42585,-3.09375 2.97908,-8.015625 3.45163,-10.9375 0.56105,-3.469 1.50095,-5.3125 2.70857,-5.3125 1.34397,0 1.61006,0.768576 0.97367,2.8125 -0.86179,2.767898 -0.83647,2.764591 1.59608,-0.208449 1.59875,-1.953987 3.20273,-2.74044 4.54143,-2.22673 2.41458,0.92656 2.59839,3.916044 0.70345,11.441475 -0.75142,2.984215 -1.14501,6.467677 -0.87461,7.741025 0.89266,4.203803 4.96841,-5.637397 7.32163,-17.678596 2.6584,-13.602825 4.09122,-17.5460155 6.7458,-18.5646705 3.3738,-1.2946473 3.80673,2.9319635 1.07002,10.4462185 l -2.5583,7.024385 2.64335,-0.08108 c 2.15969,-0.06624 2.59553,0.582817 2.3819,3.547245 -0.1438,1.995578 -1.64534,5.089328 -3.33675,6.875 -2.78039,2.935343 -2.92675,3.605052 -1.52626,6.983927 l 1.54904,3.73725 1.9475,-3.11225 c 1.0711,-1.711749 2.5616,-4.237261 3.31219,-5.612261 2.47999,-4.543051 1.49255,0.623037 -1.08466,5.674798 -3.16394,6.201823 -7.16875,6.791926 -8.28304,1.220491 -0.86216,-4.310773 -2.94156,-3.83115 -2.94156,0.678482 0,1.87887 -0.72043,3.051229 -1.875,3.051229 -1.03125,0 -1.875,-0.64968 -1.875,-1.443735 0,-0.855899 -0.94494,-0.588583 -2.32078,0.656536 -2.1234,1.921651 -2.46193,1.930165 -3.98075,0.100113 -1.35655,-1.634542 -1.37827,-3.364087 -0.11887,-9.461693 0.84764,-4.103844 1.85541,-8.280462 2.2395,-9.281375 C 139.95322,25.818929 139.65622,25 138.90914,25 c -2.0637,0 -6.35869,9.283005 -7.22742,15.621001 -0.48573,3.543855 -1.40315,5.628999 -2.47662,5.628999 -0.93781,0 -1.7051,-0.64968 -1.7051,-1.443735 0,-0.86818 -0.90378,-0.625824 -2.26706,0.607934 -1.74879,1.582622 -2.6061,1.712645 -3.75001,0.568734 C 120.66732,45.16732 120,43.785702 120,42.912671 c 0,-1.009725 -1.64765,-0.469202 -4.52796,1.485425 -2.96456,2.011808 -5.50767,2.82686 -7.36546,2.360588 -2.65328,-0.665933 -2.89479,-0.218495 -3.72003,6.891817 -0.85295,7.349088 -2.18728,10.14672 -3.68424,7.724594 z m 11.23647,-21.959946 c 2.28972,-5.480077 2.45426,-14.826899 0.24872,-14.129207 -1.99978,0.632603 -6.45328,14.066968 -5.49288,16.569732 1.20405,3.137706 3.32605,2.150172 5.24416,-2.440525 z m 41.11983,-7.614269 c 1.15289,-1.759515 1.89054,-4.15014 1.63925,-5.3125 -0.31379,-1.451376 -1.32487,-0.44927 -3.22779,3.19912 -3.00268,5.756925 -1.82521,7.323425 1.58854,2.11338 z M 154.82429,10.625 c 0,-2.5 0,-2.5 -1.07429,0 -0.59086,1.375 -1.07429,3.625 -1.07429,5 0,2.5 0,2.5 1.07429,0 0.59086,-1.375 1.07429,-3.625 1.07429,-5 z M 75.25,57.25 c -0.825,-0.825 -1.5,-3.987625 -1.5,-7.028056 0,-4.533692 -0.307435,-5.272908 -1.709151,-4.109587 -1.299077,1.078138 -2.081005,0.970416 -3.258992,-0.448972 -1.359106,-1.637621 -1.868993,-1.643899 -4.143161,-0.05101 -3.110655,2.178789 -5.861598,0.52142 -5.938743,-3.577931 -0.04484,-2.382891 -0.243973,-2.301982 -1.914922,0.778056 -1.838203,3.388339 -5.913908,4.608278 -7.39414,2.213213 -0.416158,-0.673359 -0.1138,-3.369955 0.67192,-5.992435 0.785714,-2.62248 1.220037,-6.149676 0.965159,-7.838213 -0.339211,-2.247251 -1.218735,-0.641212 -3.28167,5.992438 -1.550042,4.984375 -3.305584,9.0625 -3.901204,9.0625 -0.595619,0 0.02614,-3.515625 1.381679,-7.8125 2.188161,-6.936158 3.263639,-13.152111 3.460379,-20 0.03456,-1.203125 0.95129,-2.1875 2.037165,-2.1875 1.532445,0 1.794465,0.818871 1.17072,3.658764 -0.516911,2.353485 -0.06705,5.083097 1.260991,7.651242 1.73007,3.345586 1.835064,4.904014 0.647996,9.618285 -0.779126,3.094194 -1.148991,5.893411 -0.82192,6.220481 0.743853,0.743853 2.324643,-1.853863 7.392899,-12.148772 3.845788,-7.811765 4.185789,-8.132335 8.8193,-8.315278 4.750174,-0.187547 4.808191,-0.134701 4.044446,3.684022 -0.426172,2.130863 -1.077631,6.997739 -1.447685,10.815277 -0.643508,6.638559 -0.591055,6.79986 1.20391,3.702097 1.032204,-1.781387 3.057573,-9.033355 4.50082,-16.115487 C 81.079733,7.4339556 84.336919,1.5137431 87.307239,7.1875 c 1.425554,2.72302 -1.09228,12.963855 -5.220098,21.231812 -1.635372,3.275629 -3.32518,7.797548 -3.755127,10.048711 -0.696845,3.648608 -0.539422,3.963346 1.449865,2.898712 3.297002,-1.764503 6.097165,-8.238272 8.43095,-19.491735 3.063741,-14.7732974 6.307198,-20.0114908 9.09441,-14.6875 1.425554,2.72302 -1.09228,12.963855 -5.220098,21.231812 -1.635372,3.275629 -3.32518,7.797548 -3.755127,10.048711 -0.694495,3.636307 -0.534919,3.960936 1.430109,2.909284 1.216507,-0.651054 2.987743,-2.633539 3.936078,-4.405521 C 94.646537,35.199804 95.909689,33.75 96.505204,33.75 c 1.375173,0 -1.080443,4.81396 -4.214525,8.262105 -2.022742,2.225438 -2.168724,3.137925 -0.935152,5.845322 2.814224,6.176547 -1.598423,13.071914 -6.018016,9.403978 -1.380955,-1.146091 -1.719116,-3.518416 -1.343156,-9.422753 0.493565,-7.751296 0.460427,-7.84899 -1.871431,-5.517132 -1.910118,1.910119 -2.105172,2.876004 -0.998409,4.94401 1.933441,3.612668 1.710267,7.221116 -0.588801,9.520184 C 78.178173,59.143256 77.226821,59.226821 75.25,57.25 Z m 4.730859,-5.136271 C 79.970331,50.607427 79.416445,48.53125 78.75,47.5 c -0.885961,-1.370926 -1.216864,-0.42696 -1.230859,3.511271 -0.01165,3.276726 0.470424,5.083704 1.230859,4.613729 0.6875,-0.424899 1.241386,-2.00497 1.230859,-3.511271 z m 10,0 C 89.970331,50.607427 89.416445,48.53125 88.75,47.5 c -0.885961,-1.370926 -1.216864,-0.42696 -1.230859,3.511271 -0.01165,3.276726 0.470424,5.083704 1.230859,4.613729 0.6875,-0.424899 1.241386,-2.00497 1.230859,-3.511271 z M 67.002543,38.012551 c 2.173499,-5.201919 2.348541,-13.421246 0.271074,-12.728757 -2.047053,0.682351 -4.564338,8.135698 -4.678519,13.852477 -0.112488,5.631606 1.787267,5.147248 4.407445,-1.12372 z M 85.719866,9.0531994 C 85.092569,8.4259016 81.18469,21.004876 81.374815,23.039376 c 0.06865,0.734594 1.19807,-1.98808 2.509826,-6.050383 1.311756,-4.062304 2.137608,-7.6334111 1.835225,-7.9357936 z m 10,0 C 95.092569,8.4259016 91.18469,21.004876 91.374815,23.039376 c 0.06865,0.734594 1.19807,-1.98808 2.509826,-6.050383 1.311756,-4.062304 2.137608,-7.6334111 1.835225,-7.9357936 z M 124.3452,18.701782 c -1.25996,-2.038652 1.53877,-4.567809 3.20777,-2.898805 0.90398,0.903969 0.74667,1.764683 -0.51371,2.810698 -1.34277,1.114404 -2.04557,1.137387 -2.69406,0.08811 z"
       id="path19112"
       inkscape:connector-curvature="0" />
    <path
       style="fill:#9e9e9e"
       d="m 24.843561,63.281156 c -3.663218,-1.826314 -4.208281,-9.101695 -0.841016,-11.225711 3.171159,-2.000315 3.984053,-0.210129 1.574471,3.467357 -1.712792,2.614053 -1.823225,3.600609 -0.571822,5.108456 1.915501,2.308037 5.482507,2.418413 7.302088,0.225953 0.749867,-0.903535 2.173264,-5.114391 3.163104,-9.35746 1.758483,-7.537941 1.74375,-7.684721 -0.643095,-6.40732 C 30.358804,47.483893 24.638606,45.98506 21.891303,41.702882 19.848055,38.518106 18.27764,37.631284 13.537856,36.985641 2.7756364,35.519635 -3.2480124,25.904613 1.2870555,17.430761 3.1211524,14.00372 9.7060624,10.905206 13.25963,11.797095 17.8204,12.941775 16.822623,14.768789 11.71577,14.62403 6.2827542,14.470025 2.5,18.312229 2.5,23.984634 2.5,29.305517 8.4957266,35 14.09809,35 l 4.290397,0 0.774135,-8.290023 C 20.523152,12.140375 28.102364,1.25 36.881621,1.25 42.642241,1.25 45,4.0131025 45,10.764083 c 0,9.826501 -8.41738,21.447245 -17.895269,24.705588 -4.147605,1.425879 -4.35455,1.737534 -2.969044,4.471324 3.991079,7.874939 10.735553,6.151527 14.210027,-3.631079 C 39.57831,32.839463 41.3587,30 42.302135,30 c 1.154371,0 1.411401,0.715378 0.785955,2.1875 -0.51116,1.203125 -1.892568,6.96875 -3.069796,12.8125 -1.177229,5.84375 -2.865472,12.143876 -3.75165,14.000281 -2.055434,4.305812 -7.374668,6.299229 -11.423083,4.280875 z M 34.852819,26.88989 C 40.409374,20.86174 43.405779,12.426948 41.694426,7.6309717 37.343155,-4.5632365 24.262331,8.781038 22.808101,26.897671 l -0.649491,8.091289 3.852201,-1.342884 c 2.11871,-0.738586 6.097614,-3.77887 8.842008,-6.756186 z m 68.800161,15.712869 c 2.88133,-16.660948 5.09702,-24.59096 5.09702,-18.242358 0,2.19876 0.087,2.198344 2.52954,-0.01213 1.9961,-1.806451 2.85245,-1.966285 4.06079,-0.757936 2.07088,2.07088 1.56739,11.511919 -0.86475,16.215169 -2.55023,4.931593 -2.49554,5.908389 0.21192,3.785053 1.98257,-1.554838 2.02678,-1.510626 0.47194,0.471944 -1.69398,2.159996 -6.46515,2.96512 -8.0687,1.361574 -0.45426,-0.454259 0.43573,-1.454928 1.97775,-2.223708 C 113.79682,40.843039 116.84311,25 112.56805,25 c -2.59216,0 -4.93626,5.980321 -6.85944,17.5 -2.75725,16.515597 -3.2749,18.75 -4.34386,18.75 -0.51514,0 0.51456,-8.391259 2.28823,-18.647241 z M 75.089944,56.983376 C 71.409463,52.548667 79.443395,7.6904014 84.248336,5.8465725 89.056851,4.001372 88.558289,13.130944 83.177451,25.456402 80.816837,30.863674 78.5049,37.020324 78.039814,39.137847 l -0.845611,3.850044 3.277898,-2.147762 C 82.274946,39.65886 83.75,39.248044 83.75,39.927204 c 0,0.67916 -1.096296,1.821556 -2.436214,2.538658 -2.332727,1.248438 -2.346001,1.462079 -0.3125,5.029427 1.912328,3.354771 1.937083,4.059233 0.248714,7.077437 -2.301471,4.114211 -4.146875,4.836384 -6.160056,2.41065 z m 4.890915,-4.869647 c -0.0105,-1.506302 -0.534379,-3.553142 -1.164115,-4.548535 -0.89797,-1.41938 -1.327414,-1.082908 -1.990668,1.559705 -0.987045,3.932704 0.100488,7.627046 1.915095,6.505557 0.692356,-0.427899 1.250215,-2.010426 1.239688,-3.516727 z M 84.435985,16.850212 C 85.539187,13.055329 86.193747,9.258454 85.890563,8.4127123 85.392016,7.0220054 84.125899,10.713137 81.808745,20.3125 c -1.526406,6.323504 0.595259,3.527484 2.62724,-3.462287 z m 0.707253,40.197378 c -3.368682,-4.059011 3.374535,-45.386791 8.19145,-50.203706 5.583822,-5.5838221 5.488667,5.679895 -0.157237,18.612519 -2.360613,5.407271 -4.659318,11.503678 -5.108233,13.547572 -0.760533,3.462681 -0.638854,3.621253 1.783832,2.32467 1.430021,-0.765324 3.431823,-2.924231 4.448448,-4.797571 1.254727,-2.312095 1.864482,-2.728717 1.898455,-1.297139 0.02753,1.159914 -1.539547,3.675546 -3.482383,5.590295 -3.397725,3.348605 -3.457309,3.613213 -1.5625,6.939013 1.760429,3.089931 1.770525,3.814117 0.09493,6.809483 -2.284452,4.083789 -4.145521,4.838016 -6.106762,2.474864 z m 4.837621,-4.933861 c -0.0105,-1.506302 -0.534379,-3.553141 -1.164115,-4.548535 -0.89797,-1.41938 -1.327414,-1.082908 -1.990668,1.559705 -0.987045,3.932704 0.100488,7.627046 1.915095,6.505557 0.692357,-0.427899 1.250215,-2.010426 1.239688,-3.516727 z M 94.435985,16.850212 C 95.539187,13.055329 96.193747,9.258454 95.890563,8.4127123 95.392016,7.0220054 94.125899,10.713137 91.808745,20.3125 c -1.526406,6.323504 0.595259,3.527484 2.62724,-3.462287 z M 45.757761,36.827381 C 47.403493,31.64494 48.75,24.89494 48.75,21.827381 48.75,18.759821 49.3125,16.25 50,16.25 c 0.6875,0 1.25,1.98854 1.25,4.418979 0,2.430439 0.909949,5.807736 2.022107,7.505106 1.691508,2.581566 1.793692,3.993255 0.625,8.634546 C 53.128699,39.860261 52.5,42.782964 52.5,43.303525 c 0,2.268589 3.399275,-2.804733 7.469524,-11.148049 3.28843,-6.740721 5.11861,-9.131757 7.217976,-9.429915 1.691256,-0.240196 2.820131,0.258134 2.831641,1.25 0.01432,1.234213 0.311885,1.186544 1.182034,-0.189361 2.115803,-3.345567 2.813744,-0.305521 1.420904,6.189071 -1.812933,8.453412 -1.795329,14.183854 0.04009,13.049505 0.857083,-0.529706 1.184871,-0.190197 0.833918,0.863729 -0.830226,2.49319 -4.746084,2.970205 -4.746084,0.57815 0,-2.499788 -2.004069,-2.56201 -2.952033,-0.09166 -1.231361,3.208874 -5.657517,2.244825 -6.580672,-1.433316 l -0.830334,-3.308317 -1.733402,3.308317 c -1.794054,3.424073 -6.043993,4.487532 -6.976873,1.745816 -0.292406,-0.859375 -0.0235,-3.41994 0.597575,-5.690144 0.621073,-2.270203 0.94828,-5.645203 0.727129,-7.5 -0.309609,-2.596689 -1.05431,-1.287912 -3.237721,5.690144 -1.559595,4.984375 -3.322194,9.0625 -3.916886,9.0625 -0.594694,0 0.265247,-4.240179 1.910978,-9.422619 z M 66.107784,40.3125 C 69.867688,31.153111 70.34776,25 67.302481,25 65.392363,25 62.5,33.256955 62.5,38.709851 c 0,5.837748 1.580991,6.540055 3.607784,1.602649 z m 54.982686,4.375 c -0.0877,-0.859375 -0.29684,-2.925199 -0.46468,-4.59072 -0.16783,-1.665521 0.13062,-4.759271 0.66322,-6.875 0.5326,-2.115729 1.3207,-5.41666 1.75132,-7.335402 0.43063,-1.918743 1.26107,-3.193134 1.84543,-2.831981 0.58437,0.361154 0.30638,4.181034 -0.61773,8.488623 -2.16658,10.099126 -2.16362,12.20698 0.0172,12.20698 1.98042,0 6.96481,-12.057404 6.96481,-16.84812 0,-4.313255 2.46915,-5.281278 2.64802,-1.038151 0.0814,1.931198 -0.009,4.073771 -0.20038,4.761271 -0.19163,0.6875 -1.17985,4.484375 -2.19607,8.4375 -1.01621,3.953125 -2.37018,7.1875 -3.00885,7.1875 -0.63866,0 -0.78996,-1.265625 -0.33622,-2.8125 l 0.82496,-2.8125 -2.06161,2.8125 c -2.23511,3.049199 -5.57261,3.764862 -5.82938,1.25 z m 15.74094,0.241966 c -0.44887,-0.726295 0.14754,-5.252926 1.32538,-10.059181 2.29228,-9.353863 1.9541,-11.20444 -1.56408,-8.558914 -1.21975,0.917194 -0.95834,0.3161 0.5809,-1.335762 2.18361,-2.343396 3.12971,-2.672289 4.30531,-1.496679 1.17562,1.175611 1.00323,3.447927 -0.78447,10.340515 -1.65465,6.379556 -1.91238,9.212629 -0.92766,10.197337 0.9847,0.984709 1.78317,0.442499 2.87401,-1.951625 0.83076,-1.823336 1.9827,-3.315157 2.55985,-3.315157 0.57714,0 0.93902,-0.421875 0.80417,-0.9375 -0.39622,-1.515104 2.68184,-17.877986 4.70282,-25 1.4383,-5.0686533 2.42333,-6.5625 4.32727,-6.5625 2.94563,0 3.12318,2.8018235 0.51486,8.125 -1.01061,2.0625 -1.54535,2.713369 -1.1883,1.446374 C 156.22124,9.2220238 156.41212,7.5 155.2839,7.5 c -0.68041,0 -1.86639,2.4990863 -2.63551,5.553525 -1.76324,7.002461 -1.8172,9.528781 -0.14839,6.946475 1.36952,-2.119195 1.62896,-1.192017 0.49402,1.765586 -0.4158,1.08353 -1.2531,1.66282 -1.86068,1.287313 -0.60759,-0.375509 -0.7604,0.214506 -0.33958,1.311144 0.69039,1.799112 0.97334,1.805455 2.89661,0.06492 2.99933,-2.71436 3.80963,-2.418593 3.80963,1.390547 0,1.825731 -1.40649,5.163504 -3.12551,7.417272 -2.57038,3.369925 -2.9089,4.66751 -1.90594,7.305489 1.42241,3.74123 3.13957,4.096487 4.93132,1.020227 0.70077,-1.203125 1.29122,-1.571555 1.31212,-0.818735 0.0209,0.752822 -1.13779,2.432854 -2.57489,3.733407 -2.56403,2.320413 -2.64585,2.319568 -4.375,-0.04518 C 150.79295,43.106594 150,41.004686 150,39.761088 150,38.51749 149.4375,37.5 148.75,37.5 c -0.6875,0 -1.25,1.654302 -1.25,3.676229 0,2.021926 -0.5625,4.023872 -1.25,4.448771 -0.69383,0.428804 -1.25,-0.496398 -1.25,-2.079361 l 0,-2.851904 -1.94588,2.778133 c -2.07638,2.964452 -4.88485,3.622303 -6.22271,1.457598 z M 154.2005,30.153271 c 2.48201,-4.249806 2.02135,-6.473424 -0.8478,-4.092242 -0.93925,0.779505 -2.04768,1.077331 -2.46316,0.661836 -0.4155,-0.415495 -0.71052,0.29251 -0.6556,1.573345 0.0549,1.280834 -0.34614,3.389918 -0.89123,4.686853 -1.6653,3.9622 2.20921,1.705196 4.85779,-2.829792 z M 125,16.875 c 0,-1.03125 0.5625,-1.875 1.25,-1.875 0.6875,0 1.25,0.84375 1.25,1.875 0,1.03125 -0.5625,1.875 -1.25,1.875 -0.6875,0 -1.25,-0.84375 -1.25,-1.875 z"
       id="path19110"
       inkscape:connector-curvature="0" />
    <path
       style="fill:#ca7188"
       d="m 22.475465,61.204156 c -1.778733,-3.323594 -0.694,-8.160956 2.067655,-9.220702 3.087406,-1.184749 3.640259,0.189568 1.172984,2.915877 -3.26263,3.605166 -2.090428,6.975669 2.426015,6.975669 3.041937,0 4.11272,-0.809798 5.784995,-4.375 1.128661,-2.40625 2.418358,-6.87459 2.865992,-9.929645 0.786535,-5.368026 0.735281,-5.483515 -1.52554,-3.4375 -3.61224,3.269032 -9.618482,2.711645 -12.676841,-1.176429 -1.424899,-1.811465 -2.59364,-3.92084 -2.597201,-4.6875 -0.0036,-0.766658 -2.290185,-1.524383 -5.081385,-1.683831 C 6.1962385,36.087198 0,30.703772 0,23.629109 0,20.139462 3.2552596,14.207321 5.6810029,13.276476 8.7273461,12.107485 16.493999,12.343931 15.728605,13.582364 c -0.367915,0.595298 -1.960519,0.835461 -3.53912,0.533692 -1.723923,-0.329548 -4.2318881,0.522448 -6.2798338,2.133363 -4.2798125,3.3665 -4.7865405,11.123692 -0.9755856,14.934647 2.412712,2.412712 12.2528684,5.795668 13.4310594,4.617475 0.337024,-0.337024 0.855108,-4.095331 1.151297,-8.351795 C 20.539729,12.744078 28.112184,1.25 36.777172,1.25 42.045388,1.25 45,4.5561141 45,10.451074 c 0,9.789762 -6.947113,19.80285 -16.671226,24.028752 -2.862075,1.2438 -5.389973,2.38399 -5.617549,2.533756 -0.670221,0.441067 2.540061,6.029307 4.038405,7.029777 4.612177,3.079632 9.595729,-0.33025 12.424601,-8.501252 0.93629,-2.704408 2.20824,-4.635857 2.826557,-4.292107 0.618317,0.34375 0.893621,1.1875 0.611787,1.875 -0.281834,0.6875 -1.553751,6.3125 -2.826482,12.5 -2.788515,13.556614 -5.207682,17.354534 -11.391016,17.883082 -3.536593,0.302307 -4.784791,-0.183493 -5.919612,-2.303926 z M 30.196746,31.39392 C 39.663086,25.390545 45.710482,9.6390536 40.535714,4.4642857 38.106049,2.0346202 37.057196,2.0183824 32.56594,4.3409011 27.522566,6.9489307 23.527151,15.949316 22.780534,26.38427 22.424752,31.356787 22.66019,35 23.337315,35 c 0.645279,0 3.732022,-1.622736 6.859431,-3.60608 z m 73.456234,11.208839 c 2.88133,-16.660948 5.09702,-24.59096 5.09702,-18.242358 0,2.19876 0.087,2.198344 2.52954,-0.01213 1.9961,-1.806451 2.85245,-1.966285 4.06079,-0.757936 2.07088,2.07088 1.56739,11.511919 -0.86475,16.215169 -2.55023,4.931593 -2.49554,5.908389 0.21192,3.785053 1.98257,-1.554838 2.02678,-1.510626 0.47194,0.471944 -1.69398,2.159996 -6.46515,2.96512 -8.0687,1.361574 -0.45426,-0.454259 0.43573,-1.454928 1.97775,-2.223708 C 113.79682,40.843039 116.84311,25 112.56805,25 c -2.59216,0 -4.93626,5.980321 -6.85944,17.5 -2.75725,16.515597 -3.2749,18.75 -4.34386,18.75 -0.51514,0 0.51456,-8.391259 2.28823,-18.647241 z M 74.694824,54.754477 C 73.978217,51.370762 74.34321,41.955016 75.363676,37.5 75.757374,35.78125 77.306176,28.75 78.80546,21.875 81.65862,8.791773 82.820515,6.25 85.947961,6.25 c 2.891095,0 1.173958,9.285182 -4.05171,21.909056 C 77.681884,38.339889 76.626203,42.5 78.257055,42.5 c 1.800364,0 7.40229,-5.876694 7.761939,-8.142652 1.199703,-7.558709 5.709577,-25.204722 6.78419,-26.544848 0.68911,-0.859375 2.10426,-1.5625 3.144777,-1.5625 2.891095,0 1.173958,9.285182 -4.05171,21.909056 -5.972271,14.427478 -5.850311,17.115938 0.523185,11.532986 2.994413,-2.622997 2.979325,-2.556937 -0.22905,1.002887 -2.431332,2.697662 -3.045411,4.200046 -2.102223,5.143233 0.732815,0.732815 1.153391,3.515892 0.934613,6.184614 -0.314415,3.835349 -0.953041,4.931459 -3.047336,5.23031 -3.391376,0.483943 -4.253381,-2.626284 -3.329649,-12.013817 L 85.345834,38.125 82.063526,41.140729 c -2.416737,2.220457 -2.93552,3.433583 -1.96726,4.600265 0.723276,0.871495 1.138128,3.733167 0.921891,6.359271 -0.309985,3.76464 -0.955918,4.855014 -3.053337,5.154212 -1.926012,0.274749 -2.828479,-0.415211 -3.269996,-2.5 z m 5.068132,-3.095352 C 79.252694,45.620945 76.25,44.46992 76.25,50.3125 c 0,2.348959 0.375,4.645834 0.833334,5.104166 1.985416,1.985416 3.039972,0.506649 2.679622,-3.757541 z m 10,0 C 89.252694,45.620945 86.25,44.46992 86.25,50.3125 c 0,2.348959 0.375,4.645834 0.833334,5.104166 1.985416,1.985416 3.039972,0.506649 2.679622,-3.757541 z m -6.019453,-32.2646 C 85.227032,14.936515 86.212255,10.295889 85.932884,9.0820254 85.474055,7.0884179 82.799357,14.52127 80.542189,24.0625 c -1.515167,6.404729 0.489105,3.482212 3.201314,-4.667975 z m 10,0 C 95.227032,14.936515 96.212255,10.295889 95.932884,9.0820254 95.474055,7.0884179 92.799357,14.52127 90.542189,24.0625 c -1.515166,6.404729 0.489105,3.482212 3.201314,-4.667975 z M 43.896409,45.625 c -0.06279,-0.6875 1.003587,-4.81574 2.369717,-9.173868 C 47.632258,32.093005 48.75,25.76488 48.75,22.388632 48.75,19.012385 49.3125,16.25 50,16.25 c 0.6875,0 1.25,2.216802 1.25,4.926229 0,2.709426 0.636471,5.31959 1.41438,5.800364 0.944741,0.583882 1.167886,3.513778 0.672033,8.823771 -0.408293,4.3723 -0.313639,7.949636 0.210341,7.949636 0.523978,0 3.136516,-4.479134 5.805637,-9.953629 4.936375,-10.12474 7.205698,-12.3842 10.059487,-10.015765 1.146317,0.951359 1.75688,0.869517 2.170433,-0.290934 1.239992,-3.479468 1.969457,-0.02196 0.985115,4.669222 -2.533201,12.072752 -2.734757,15.922788 -0.794606,15.178283 1.249205,-0.479364 1.624168,-0.121712 1.154785,1.101483 -1.091271,2.843806 -4.170472,2.11728 -4.24317,-1.00116 l -0.06556,-2.8125 -1.9619,2.8125 c -1.079048,1.546875 -2.957314,2.8125 -4.173928,2.8125 -2.466028,0 -4.160294,-4.718999 -2.99366,-8.338171 0.405435,-1.257757 -0.59466,-0.0416 -2.222435,2.702565 -5.373444,9.058765 -9.134168,6.504707 -6.083691,-4.131679 0.650791,-2.269179 0.742683,-5.316765 0.204205,-6.772413 -0.7917,-2.140168 -1.591204,-0.75107 -4.177977,7.259033 C 45.45008,42.417451 43.959195,46.3125 43.896409,45.625 Z M 66.984064,39.306778 C 69.618588,33.001475 69.896753,25.625 67.5,25.625 c -2.185429,0 -6.9365,13.28303 -5.805384,16.230674 1.21251,3.159748 3.330709,2.139023 5.289448,-2.548897 z M 121.09047,44.6875 c -0.0877,-0.859375 -0.29684,-2.925199 -0.46468,-4.59072 -0.16783,-1.665521 0.13062,-4.759271 0.66322,-6.875 0.5326,-2.115729 1.3207,-5.41666 1.75132,-7.335402 0.43063,-1.918743 1.26107,-3.193134 1.84543,-2.831981 0.58437,0.361154 0.30638,4.181034 -0.61773,8.488623 -2.16658,10.099126 -2.16362,12.20698 0.0172,12.20698 1.98042,0 6.96481,-12.057404 6.96481,-16.84812 0,-4.313255 2.46915,-5.281278 2.64802,-1.038151 0.0814,1.931198 -0.009,4.073771 -0.20038,4.761271 -0.19163,0.6875 -1.17985,4.484375 -2.19607,8.4375 -1.01621,3.953125 -2.37018,7.1875 -3.00885,7.1875 -0.63866,0 -0.78996,-1.265625 -0.33622,-2.8125 l 0.82496,-2.8125 -2.06161,2.8125 c -2.23511,3.049199 -5.57261,3.764862 -5.82938,1.25 z m 15.74094,0.241966 c -0.44887,-0.726295 0.14754,-5.252926 1.32538,-10.059181 2.29228,-9.353863 1.9541,-11.20444 -1.56408,-8.558914 -1.21975,0.917194 -0.95834,0.3161 0.5809,-1.335762 2.18361,-2.343396 3.12971,-2.672289 4.30531,-1.496679 1.17562,1.175611 1.00323,3.447927 -0.78447,10.340515 -1.65465,6.379556 -1.91238,9.212629 -0.92766,10.197337 0.9847,0.984709 1.78317,0.442499 2.87401,-1.951625 0.83076,-1.823336 1.9827,-3.315157 2.55985,-3.315157 0.57714,0 0.93902,-0.421875 0.80417,-0.9375 -0.39622,-1.515104 2.68184,-17.877986 4.70282,-25 1.4383,-5.0686533 2.42333,-6.5625 4.32727,-6.5625 2.94563,0 3.12318,2.8018235 0.51486,8.125 -1.01061,2.0625 -1.54535,2.713369 -1.1883,1.446374 C 156.22124,9.2220238 156.41212,7.5 155.2839,7.5 c -0.68041,0 -1.86639,2.4990863 -2.63551,5.553525 -1.76324,7.002461 -1.8172,9.528781 -0.14839,6.946475 1.36952,-2.119195 1.62896,-1.192017 0.49402,1.765586 -0.4158,1.08353 -1.2531,1.66282 -1.86068,1.287313 -0.60759,-0.375509 -0.7604,0.214506 -0.33958,1.311144 0.69039,1.799112 0.97334,1.805455 2.89661,0.06492 2.99933,-2.71436 3.80963,-2.418593 3.80963,1.390547 0,1.825731 -1.40649,5.163504 -3.12551,7.417272 -2.57038,3.369925 -2.9089,4.66751 -1.90594,7.305489 1.42241,3.74123 3.13957,4.096487 4.93132,1.020227 0.70077,-1.203125 1.29122,-1.571555 1.31212,-0.818735 0.0209,0.752822 -1.13779,2.432854 -2.57489,3.733407 -2.56403,2.320413 -2.64585,2.319568 -4.375,-0.04518 C 150.79295,43.106594 150,41.004686 150,39.761088 150,38.51749 149.4375,37.5 148.75,37.5 c -0.6875,0 -1.25,1.654302 -1.25,3.676229 0,2.021926 -0.5625,4.023872 -1.25,4.448771 -0.69383,0.428804 -1.25,-0.496398 -1.25,-2.079361 l 0,-2.851904 -1.94588,2.778133 c -2.07638,2.964452 -4.88485,3.622303 -6.22271,1.457598 z M 154.2005,30.153271 c 2.48201,-4.249806 2.02135,-6.473424 -0.8478,-4.092242 -0.93925,0.779505 -2.04768,1.077331 -2.46316,0.661836 -0.4155,-0.415495 -0.71052,0.29251 -0.6556,1.573345 0.0549,1.280834 -0.34614,3.389918 -0.89123,4.686853 -1.6653,3.9622 2.20921,1.705196 4.85779,-2.829792 z M 125,16.875 c 0,-1.03125 0.5625,-1.875 1.25,-1.875 0.6875,0 1.25,0.84375 1.25,1.875 0,1.03125 -0.5625,1.875 -1.25,1.875 -0.6875,0 -1.25,-0.84375 -1.25,-1.875 z"
       id="path19108"
       inkscape:connector-curvature="0" />
    <path
       style="fill:#bd4c68"
       d="m 22.475465,61.204156 c -1.778733,-3.323594 -0.694,-8.160956 2.067655,-9.220702 3.087406,-1.184749 3.640259,0.189568 1.172984,2.915877 -3.26263,3.605166 -2.090428,6.975669 2.426015,6.975669 3.041937,0 4.11272,-0.809798 5.784995,-4.375 1.128661,-2.40625 2.418358,-6.87459 2.865992,-9.929645 0.786535,-5.368026 0.735281,-5.483515 -1.52554,-3.4375 -3.61224,3.269032 -9.618482,2.711645 -12.676841,-1.176429 -1.424899,-1.811465 -2.59364,-3.92084 -2.597201,-4.6875 -0.0036,-0.766658 -2.290185,-1.524383 -5.081385,-1.683831 C 6.1962385,36.087198 0,30.703772 0,23.629109 0,20.139462 3.2552596,14.207321 5.6810029,13.276476 8.7273461,12.107485 16.493999,12.343931 15.728605,13.582364 c -0.367915,0.595298 -1.960519,0.835461 -3.53912,0.533692 -1.723923,-0.329548 -4.2318881,0.522448 -6.2798338,2.133363 -4.2798125,3.3665 -4.7865405,11.123692 -0.9755856,14.934647 2.412712,2.412712 12.2528684,5.795668 13.4310594,4.617475 0.337024,-0.337024 0.855108,-4.095331 1.151297,-8.351795 C 20.539729,12.744078 28.112184,1.25 36.777172,1.25 42.045388,1.25 45,4.5561141 45,10.451074 c 0,9.789762 -6.947113,19.80285 -16.671226,24.028752 -2.862075,1.2438 -5.389973,2.38399 -5.617549,2.533756 -0.670221,0.441067 2.540061,6.029307 4.038405,7.029777 4.612177,3.079632 9.595729,-0.33025 12.424601,-8.501252 0.93629,-2.704408 2.20824,-4.635857 2.826557,-4.292107 0.618317,0.34375 0.893621,1.1875 0.611787,1.875 -0.281834,0.6875 -1.553751,6.3125 -2.826482,12.5 -2.788515,13.556614 -5.207682,17.354534 -11.391016,17.883082 -3.536593,0.302307 -4.784791,-0.183493 -5.919612,-2.303926 z M 30.196746,31.39392 C 39.663086,25.390545 45.710482,9.6390536 40.535714,4.4642857 38.106049,2.0346202 37.057196,2.0183824 32.56594,4.3409011 27.522566,6.9489307 23.527151,15.949316 22.780534,26.38427 22.424752,31.356787 22.66019,35 23.337315,35 c 0.645279,0 3.732022,-1.622736 6.859431,-3.60608 z M 101.58457,57.1875 C 105.085,33.801869 106.93558,23.75 107.74052,23.75 c 0.52836,0 0.67089,1.828125 0.31673,4.0625 -1.78813,11.28135 -2.00242,15.669336 -0.80145,16.411572 1.93168,1.193849 4.98258,-2.455667 6.44012,-7.703748 1.8322,-6.597101 1.6134,-9.972996 -0.73144,-11.285233 -1.39168,-0.778825 -1.58937,-1.414871 -0.625,-2.010883 4.28797,-2.650113 5.32624,7.235392 1.79477,17.088292 -2.12612,5.931949 -4.62027,7.45148 -7.50153,4.570221 -0.9897,-0.989706 -1.7803,1.081418 -2.86294,7.5 -0.82261,4.877004 -1.78763,8.867279 -2.14448,8.867279 -0.35685,0 -0.37518,-1.828125 -0.0407,-4.0625 z M 74.694824,54.754477 C 73.978217,51.370762 74.34321,41.955016 75.363676,37.5 75.757374,35.78125 77.306176,28.75 78.80546,21.875 81.65862,8.791773 82.820515,6.25 85.947961,6.25 c 2.891095,0 1.173958,9.285182 -4.05171,21.909056 C 77.681884,38.339889 76.626203,42.5 78.257055,42.5 c 1.800364,0 7.40229,-5.876694 7.761939,-8.142652 1.199703,-7.558709 5.709577,-25.204722 6.78419,-26.544848 0.68911,-0.859375 2.10426,-1.5625 3.144777,-1.5625 2.891095,0 1.173958,9.285182 -4.05171,21.909056 -5.972271,14.427478 -5.850311,17.115938 0.523185,11.532986 2.994413,-2.622997 2.979325,-2.556937 -0.22905,1.002887 -2.431332,2.697662 -3.045411,4.200046 -2.102223,5.143233 0.732815,0.732815 1.153391,3.515892 0.934613,6.184614 -0.314415,3.835349 -0.953041,4.931459 -3.047336,5.23031 -3.391376,0.483943 -4.253381,-2.626284 -3.329649,-12.013817 L 85.345834,38.125 82.063526,41.140729 c -2.416737,2.220457 -2.93552,3.433583 -1.96726,4.600265 0.723276,0.871495 1.138128,3.733167 0.921891,6.359271 -0.309985,3.76464 -0.955918,4.855014 -3.053337,5.154212 -1.926012,0.274749 -2.828479,-0.415211 -3.269996,-2.5 z m 5.068132,-3.095352 C 79.252694,45.620945 76.25,44.46992 76.25,50.3125 c 0,2.348959 0.375,4.645834 0.833334,5.104166 1.985416,1.985416 3.039972,0.506649 2.679622,-3.757541 z m 10,0 C 89.252694,45.620945 86.25,44.46992 86.25,50.3125 c 0,2.348959 0.375,4.645834 0.833334,5.104166 1.985416,1.985416 3.039972,0.506649 2.679622,-3.757541 z m -6.019453,-32.2646 C 85.227032,14.936515 86.212255,10.295889 85.932884,9.0820254 85.474055,7.0884179 82.799357,14.52127 80.542189,24.0625 c -1.515167,6.404729 0.489105,3.482212 3.201314,-4.667975 z m 10,0 C 95.227032,14.936515 96.212255,10.295889 95.932884,9.0820254 95.474055,7.0884179 92.799357,14.52127 90.542189,24.0625 c -1.515166,6.404729 0.489105,3.482212 3.201314,-4.667975 z M 43.896409,45.625 c -0.06279,-0.6875 1.003587,-4.81574 2.369717,-9.173868 C 47.632258,32.093005 48.75,25.76488 48.75,22.388632 48.75,19.012385 49.3125,16.25 50,16.25 c 0.6875,0 1.25,2.216802 1.25,4.926229 0,2.709426 0.636471,5.31959 1.41438,5.800364 0.944741,0.583882 1.167886,3.513778 0.672033,8.823771 -0.408293,4.3723 -0.313639,7.949636 0.210341,7.949636 0.523978,0 3.136516,-4.479134 5.805637,-9.953629 4.936375,-10.12474 7.205698,-12.3842 10.059487,-10.015765 1.146317,0.951359 1.75688,0.869517 2.170433,-0.290934 1.239992,-3.479468 1.969457,-0.02196 0.985115,4.669222 -2.533201,12.072752 -2.734757,15.922788 -0.794606,15.178283 1.249205,-0.479364 1.624168,-0.121712 1.154785,1.101483 -1.091271,2.843806 -4.170472,2.11728 -4.24317,-1.00116 l -0.06556,-2.8125 -1.9619,2.8125 c -1.079048,1.546875 -2.957314,2.8125 -4.173928,2.8125 -2.466028,0 -4.160294,-4.718999 -2.99366,-8.338171 0.405435,-1.257757 -0.59466,-0.0416 -2.222435,2.702565 -5.373444,9.058765 -9.134168,6.504707 -6.083691,-4.131679 0.650791,-2.269179 0.742683,-5.316765 0.204205,-6.772413 -0.7917,-2.140168 -1.591204,-0.75107 -4.177977,7.259033 C 45.45008,42.417451 43.959195,46.3125 43.896409,45.625 Z M 66.984064,39.306778 C 69.618588,33.001475 69.896753,25.625 67.5,25.625 c -2.185429,0 -6.9365,13.28303 -5.805384,16.230674 1.21251,3.159748 3.330709,2.139023 5.289448,-2.548897 z m 55.099266,6.109888 C 121.625,44.958334 121.25,43.237636 121.25,41.592895 c 0,-1.64474 -0.48822,-2.688701 -1.08493,-2.319911 -1.02713,0.634798 1.45065,-8.256634 3.80329,-13.647984 0.7477,-1.713425 0.87415,-0.92685 0.4019,2.5 -2.39337,17.3675 -2.39318,17.343134 -0.12934,16.474416 1.26933,-0.487084 1.82844,-0.318401 1.37523,0.414902 -0.88412,1.430542 -2.33894,1.596229 -3.53282,0.402348 z m 6.24713,-4.11533 c 0.15215,-2.721765 0.87129,-6.059785 1.59809,-7.417822 0.7268,-1.358039 1.32145,-3.879193 1.32145,-5.602567 0,-1.723372 0.54875,-3.47255 1.21944,-3.88706 1.40062,-0.865628 0.85005,5.392407 -1.3455,15.293613 -1.71983,7.755781 -3.18409,8.601717 -2.79348,1.613836 z m 8.76149,3.188282 c -0.37154,-0.96821 0.23516,-5.511129 1.34821,-10.095375 1.75028,-7.208705 1.78126,-8.488427 0.22929,-9.470477 -1.38607,-0.877073 -1.15439,-1.13984 1.01805,-1.154625 3.35431,-0.02283 3.41696,0.787553 0.78586,10.164715 -2.07196,7.384421 -1.64808,11.93971 0.96095,10.327237 0.90274,-0.557928 1.11459,-0.351484 0.56005,0.545772 -1.23266,1.994488 -4.08617,1.809829 -4.90241,-0.317247 z M 145.45369,41.25 c 1.00085,-10.212635 5.9113,-31.8440309 7.62408,-33.5854055 1.80914,-1.8393331 4.43438,-0.9618787 4.40309,1.4716768 -0.0113,0.9089357 -0.47204,0.772599 -1.18203,-0.3500709 -1.65891,-2.6231014 -2.62279,-1.1299322 -4.50924,6.9853446 -1.18751,5.108489 -1.28686,7.832153 -0.34959,9.583472 0.94005,1.756499 0.92164,2.207009 -0.0652,1.597058 -0.75609,-0.46729 -1.43759,-0.394545 -1.51444,0.161654 -0.91607,6.629935 -0.90201,9.155103 0.0478,8.568156 0.62624,-0.387036 1.53178,1.129332 2.01233,3.369707 1.22146,5.694723 1.76271,6.286645 4.1285,4.515067 1.93242,-1.447067 1.93302,-1.397744 0.009,0.712207 -2.5701,2.81796 -4.36955,1.810511 -5.4356,-3.043201 -0.96028,-4.372101 -3.11321,-5.004869 -3.14099,-0.923165 -0.01,1.546875 -0.59499,3.65625 -1.29879,4.6875 -0.93148,1.364854 -1.12966,0.344562 -0.72838,-3.75 z m 7.29042,-6.875 c 0.25361,-0.6875 1.28019,-2.89283 2.2813,-4.900734 1.41144,-2.830902 1.47085,-3.767177 0.2646,-4.169262 C 153.59439,24.739796 154.41985,22.5 156.32377,22.5 c 2.08388,0 1.2366,5.514171 -1.44051,9.375 -1.43014,2.0625 -2.39276,3.1875 -2.13915,2.5 z M 125,16.948771 C 125,15.876948 125.5625,15 126.25,15 c 0.6875,0 1.25,0.529303 1.25,1.176229 0,0.646926 -0.5625,1.523872 -1.25,1.948771 -0.6875,0.424899 -1.25,-0.1044 -1.25,-1.176229 z"
       id="path19106"
       inkscape:connector-curvature="0" />
    <path
       style="fill:#b63857"
       d="m 22.475465,61.204156 c -1.778733,-3.323594 -0.694,-8.160956 2.067655,-9.220702 3.087406,-1.184749 3.640259,0.189568 1.172984,2.915877 -3.26263,3.605166 -2.090428,6.975669 2.426015,6.975669 3.041937,0 4.11272,-0.809798 5.784995,-4.375 1.128661,-2.40625 2.418358,-6.87459 2.865992,-9.929645 0.786535,-5.368026 0.735281,-5.483515 -1.52554,-3.4375 -3.61224,3.269032 -9.618482,2.711645 -12.676841,-1.176429 -1.424899,-1.811465 -2.59364,-3.92084 -2.597201,-4.6875 -0.0036,-0.766658 -2.290185,-1.524383 -5.081385,-1.683831 C 6.1962385,36.087198 0,30.703772 0,23.629109 0,20.139462 3.2552596,14.207321 5.6810029,13.276476 8.7273461,12.107485 16.493999,12.343931 15.728605,13.582364 c -0.367915,0.595298 -1.960519,0.835461 -3.53912,0.533692 -1.723923,-0.329548 -4.2318881,0.522448 -6.2798338,2.133363 -4.2798125,3.3665 -4.7865405,11.123692 -0.9755856,14.934647 2.412712,2.412712 12.2528684,5.795668 13.4310594,4.617475 0.337024,-0.337024 0.855108,-4.095331 1.151297,-8.351795 C 20.539729,12.744078 28.112184,1.25 36.777172,1.25 42.045388,1.25 45,4.5561141 45,10.451074 c 0,9.789762 -6.947113,19.80285 -16.671226,24.028752 -2.862075,1.2438 -5.389973,2.38399 -5.617549,2.533756 -0.670221,0.441067 2.540061,6.029307 4.038405,7.029777 4.612177,3.079632 9.595729,-0.33025 12.424601,-8.501252 0.93629,-2.704408 2.20824,-4.635857 2.826557,-4.292107 0.618317,0.34375 0.893621,1.1875 0.611787,1.875 -0.281834,0.6875 -1.553751,6.3125 -2.826482,12.5 -2.788515,13.556614 -5.207682,17.354534 -11.391016,17.883082 -3.536593,0.302307 -4.784791,-0.183493 -5.919612,-2.303926 z M 30.196746,31.39392 C 39.663086,25.390545 45.710482,9.6390536 40.535714,4.4642857 38.106049,2.0346202 37.057196,2.0183824 32.56594,4.3409011 27.522566,6.9489307 23.527151,15.949316 22.780534,26.38427 22.424752,31.356787 22.66019,35 23.337315,35 c 0.645279,0 3.732022,-1.622736 6.859431,-3.60608 z M 101.54579,58.75 c 0,-1.71875 0.42939,-4.8125 0.95421,-6.875 0.85116,-3.34501 0.95421,-3.412509 0.95421,-0.625 0,1.71875 -0.42939,4.8125 -0.95421,6.875 -0.85116,3.34501 -0.95421,3.412509 -0.95421,0.625 z M 74.694824,54.754477 C 73.978217,51.370762 74.34321,41.955016 75.363676,37.5 75.757374,35.78125 77.306176,28.75 78.80546,21.875 81.65862,8.791773 82.820515,6.25 85.947961,6.25 c 2.891095,0 1.173958,9.285182 -4.05171,21.909056 C 77.681884,38.339889 76.626203,42.5 78.257055,42.5 c 1.800364,0 7.40229,-5.876694 7.761939,-8.142652 1.199703,-7.558709 5.709577,-25.204722 6.78419,-26.544848 0.68911,-0.859375 2.10426,-1.5625 3.144777,-1.5625 2.891095,0 1.173958,9.285182 -4.05171,21.909056 -5.972271,14.427478 -5.850311,17.115938 0.523185,11.532986 2.994413,-2.622997 2.979325,-2.556937 -0.22905,1.002887 -2.431332,2.697662 -3.045411,4.200046 -2.102223,5.143233 0.732815,0.732815 1.153391,3.515892 0.934613,6.184614 -0.314415,3.835349 -0.953041,4.931459 -3.047336,5.23031 -3.391376,0.483943 -4.253381,-2.626284 -3.329649,-12.013817 L 85.345834,38.125 82.063526,41.140729 c -2.416737,2.220457 -2.93552,3.433583 -1.96726,4.600265 0.723276,0.871495 1.138128,3.733167 0.921891,6.359271 -0.309985,3.76464 -0.955918,4.855014 -3.053337,5.154212 -1.926012,0.274749 -2.828479,-0.415211 -3.269996,-2.5 z m 5.068132,-3.095352 C 79.252694,45.620945 76.25,44.46992 76.25,50.3125 c 0,2.348959 0.375,4.645834 0.833334,5.104166 1.985416,1.985416 3.039972,0.506649 2.679622,-3.757541 z m 10,0 C 89.252694,45.620945 86.25,44.46992 86.25,50.3125 c 0,2.348959 0.375,4.645834 0.833334,5.104166 1.985416,1.985416 3.039972,0.506649 2.679622,-3.757541 z m -6.019453,-32.2646 C 85.227032,14.936515 86.212255,10.295889 85.932884,9.0820254 85.474055,7.0884179 82.799357,14.52127 80.542189,24.0625 c -1.515167,6.404729 0.489105,3.482212 3.201314,-4.667975 z m 10,0 C 95.227032,14.936515 96.212255,10.295889 95.932884,9.0820254 95.474055,7.0884179 92.799357,14.52127 90.542189,24.0625 c -1.515166,6.404729 0.489105,3.482212 3.201314,-4.667975 z M 104.35124,43.125 c 0.35586,-2.75 1.00797,-7.968941 1.44912,-11.597646 0.44116,-3.628707 1.16027,-6.819004 1.59802,-7.089552 0.43776,-0.270547 0.2643,3.701114 -0.38546,8.825914 -1.27517,10.057498 -0.14322,13.602904 3.4033,10.659554 2.41683,-2.005788 5.00417,-11.742273 4.33391,-16.309036 -0.30127,-2.052712 -0.0871,-3.447463 0.47605,-3.099447 1.75688,1.085814 1.1212,10.346667 -1.04424,15.212862 -1.13743,2.556042 -1.98118,5.069226 -1.875,5.584851 0.31665,1.53768 -4.58294,1.061215 -5.5738,-0.54203 -0.63187,-1.022396 -1.24106,-0.732736 -1.97166,0.9375 -0.70122,1.603094 -0.83937,0.733277 -0.41024,-2.58297 z m -60.454831,2.5 c -0.06279,-0.6875 1.003587,-4.81574 2.369717,-9.173868 C 47.632258,32.093005 48.75,25.76488 48.75,22.388632 48.75,19.012385 49.3125,16.25 50,16.25 c 0.6875,0 1.25,2.216802 1.25,4.926229 0,2.709426 0.636471,5.31959 1.41438,5.800364 0.944741,0.583882 1.167886,3.513778 0.672033,8.823771 -0.408293,4.3723 -0.313639,7.949636 0.210341,7.949636 0.523978,0 3.136516,-4.479134 5.805637,-9.953629 4.936375,-10.12474 7.205698,-12.3842 10.059487,-10.015765 1.146317,0.951359 1.75688,0.869517 2.170433,-0.290934 1.239992,-3.479468 1.969457,-0.02196 0.985115,4.669222 -2.533201,12.072752 -2.734757,15.922788 -0.794606,15.178283 1.249205,-0.479364 1.624168,-0.121712 1.154785,1.101483 -1.091271,2.843806 -4.170472,2.11728 -4.24317,-1.00116 l -0.06556,-2.8125 -1.9619,2.8125 c -1.079048,1.546875 -2.957314,2.8125 -4.173928,2.8125 -2.466028,0 -4.160294,-4.718999 -2.99366,-8.338171 0.405435,-1.257757 -0.59466,-0.0416 -2.222435,2.702565 -5.373444,9.058765 -9.134168,6.504707 -6.083691,-4.131679 0.650791,-2.269179 0.742683,-5.316765 0.204205,-6.772413 -0.7917,-2.140168 -1.591204,-0.75107 -4.177977,7.259033 C 45.45008,42.417451 43.959195,46.3125 43.896409,45.625 Z M 66.984064,39.306778 C 69.618588,33.001475 69.896753,25.625 67.5,25.625 c -2.185429,0 -6.9365,13.28303 -5.805384,16.230674 1.21251,3.159748 3.330709,2.139023 5.289448,-2.548897 z m 54.974606,5.828597 c -1.23859,-2.00408 -0.98201,-9.388072 0.53986,-15.53615 2.09456,-8.461698 2.98327,-6.408716 1.18423,2.735659 -0.81998,4.167861 -1.2183,9.003796 -0.88515,10.746522 0.62795,3.284941 0.34698,3.972836 -0.83894,2.053969 z m 7.07034,-4.822875 c 0.62296,-3.265625 1.43696,-8.050401 1.80888,-10.632835 0.77927,-5.411061 3.13038,-7.85541 2.4665,-2.564315 -0.95409,7.603915 -3.67719,19.13465 -4.51885,19.13465 -0.48907,0 -0.3795,-2.671875 0.24347,-5.9375 z m 8.77198,4.375 c -0.85038,-1.05863 -0.71598,-3.57798 0.41677,-7.8125 0.91955,-3.4375 1.69673,-7.909375 1.72708,-9.9375 0.0355,-2.372171 0.48593,-3.256724 1.26283,-2.479828 0.77689,0.776897 0.51808,3.848437 -0.72561,8.611004 -1.0633,4.071834 -1.68475,8.703382 -1.38101,10.292329 0.63262,3.309365 0.44584,3.499956 -1.30006,1.326495 z m 7.82666,-3.4375 c 1.0134,-9.612543 4.43577,-26.482092 6.25661,-30.839958 1.74259,-4.1706099 3.55438,-5.2341254 4.98189,-2.92436 0.42426,0.6864666 -0.0323,0.9302239 -1.02725,0.5484306 -2.42007,-0.9286707 -3.93776,3.7969124 -6.53131,20.3363964 -2.22912,14.215383 -4.75145,23.043365 -3.67994,12.879491 z m 5.59471,0.541247 c -0.80934,-2.452313 -1.13421,-4.796063 -0.72194,-5.208333 0.41227,-0.412269 0.74958,-0.129949 0.74958,0.627379 0,0.757327 0.57182,2.880964 1.27071,4.719196 1.12187,2.950723 1.52454,3.143288 3.4375,1.643873 1.95926,-1.535703 2.00249,-1.488856 0.45124,0.489138 -2.49629,3.183009 -3.53749,2.727105 -5.18709,-2.271253 z m 3.19424,-10.326676 c 0.46859,-0.913235 1.30571,-3.163235 1.86025,-5 0.80908,-2.679812 1.0295,-2.831139 1.11571,-0.765984 0.0591,1.415474 -0.77802,3.665474 -1.86026,5 -1.08222,1.334528 -1.5843,1.67922 -1.1157,0.765984 z M 125,17.573771 c 0,-0.728074 0.5625,-1.323771 1.25,-1.323771 0.6875,0 1.25,0.248052 1.25,0.551229 0,0.303176 -0.5625,0.898872 -1.25,1.323771 -0.6875,0.424899 -1.25,0.176845 -1.25,-0.551229 z"
       id="path19104"
       inkscape:connector-curvature="0" />
    <path
       style="fill:#5a5a5a"
       d="m 22.475465,61.204156 c -1.778733,-3.323594 -0.694,-8.160956 2.067655,-9.220702 3.087406,-1.184749 3.640259,0.189568 1.172984,2.915877 -3.26263,3.605166 -2.090428,6.975669 2.426015,6.975669 3.041937,0 4.11272,-0.809798 5.784995,-4.375 1.128661,-2.40625 2.418358,-6.87459 2.865992,-9.929645 0.786535,-5.368026 0.735281,-5.483515 -1.52554,-3.4375 -3.61224,3.269032 -9.618482,2.711645 -12.676841,-1.176429 -1.424899,-1.811465 -2.59364,-3.92084 -2.597201,-4.6875 -0.0036,-0.766658 -2.290185,-1.524383 -5.081385,-1.683831 C 6.1962385,36.087198 0,30.703772 0,23.629109 0,20.139462 3.2552596,14.207321 5.6810029,13.276476 8.7273461,12.107485 16.493999,12.343931 15.728605,13.582364 c -0.367915,0.595298 -1.960519,0.835461 -3.53912,0.533692 -1.723923,-0.329548 -4.2318881,0.522448 -6.2798338,2.133363 -4.2798125,3.3665 -4.7865405,11.123692 -0.9755856,14.934647 2.412712,2.412712 12.2528684,5.795668 13.4310594,4.617475 0.337024,-0.337024 0.855108,-4.095331 1.151297,-8.351795 C 20.539729,12.744078 28.112184,1.25 36.777172,1.25 42.045388,1.25 45,4.5561141 45,10.451074 c 0,9.789762 -6.947113,19.80285 -16.671226,24.028752 -2.862075,1.2438 -5.389973,2.38399 -5.617549,2.533756 -0.670221,0.441067 2.540061,6.029307 4.038405,7.029777 4.612177,3.079632 9.595729,-0.33025 12.424601,-8.501252 0.93629,-2.704408 2.20824,-4.635857 2.826557,-4.292107 0.618317,0.34375 0.893621,1.1875 0.611787,1.875 -0.281834,0.6875 -1.553751,6.3125 -2.826482,12.5 -2.788515,13.556614 -5.207682,17.354534 -11.391016,17.883082 -3.536593,0.302307 -4.784791,-0.183493 -5.919612,-2.303926 z M 30.196746,31.39392 C 39.663086,25.390545 45.710482,9.6390536 40.535714,4.4642857 38.106049,2.0346202 37.057196,2.0183824 32.56594,4.3409011 27.522566,6.9489307 23.527151,15.949316 22.780534,26.38427 22.424752,31.356787 22.66019,35 23.337315,35 c 0.645279,0 3.732022,-1.622736 6.859431,-3.60608 z M 74.694824,54.754477 C 73.978217,51.370762 74.34321,41.955016 75.363676,37.5 75.757374,35.78125 77.306176,28.75 78.80546,21.875 81.65862,8.791773 82.820515,6.25 85.947961,6.25 c 2.891095,0 1.173958,9.285182 -4.05171,21.909056 C 77.681884,38.339889 76.626203,42.5 78.257055,42.5 c 1.800364,0 7.40229,-5.876694 7.761939,-8.142652 1.199703,-7.558709 5.709577,-25.204722 6.78419,-26.544848 0.68911,-0.859375 2.10426,-1.5625 3.144777,-1.5625 2.891095,0 1.173958,9.285182 -4.05171,21.909056 -5.972271,14.427478 -5.850311,17.115938 0.523185,11.532986 2.994413,-2.622997 2.979325,-2.556937 -0.22905,1.002887 -2.431332,2.697662 -3.045411,4.200046 -2.102223,5.143233 0.732815,0.732815 1.153391,3.515892 0.934613,6.184614 -0.314415,3.835349 -0.953041,4.931459 -3.047336,5.23031 -3.391376,0.483943 -4.253381,-2.626284 -3.329649,-12.013817 L 85.345834,38.125 82.063526,41.140729 c -2.416737,2.220457 -2.93552,3.433583 -1.96726,4.600265 0.723276,0.871495 1.138128,3.733167 0.921891,6.359271 -0.309985,3.76464 -0.955918,4.855014 -3.053337,5.154212 -1.926012,0.274749 -2.828479,-0.415211 -3.269996,-2.5 z m 5.068132,-3.095352 C 79.252694,45.620945 76.25,44.46992 76.25,50.3125 c 0,2.348959 0.375,4.645834 0.833334,5.104166 1.985416,1.985416 3.039972,0.506649 2.679622,-3.757541 z m 10,0 C 89.252694,45.620945 86.25,44.46992 86.25,50.3125 c 0,2.348959 0.375,4.645834 0.833334,5.104166 1.985416,1.985416 3.039972,0.506649 2.679622,-3.757541 z m -6.019453,-32.2646 C 85.227032,14.936515 86.212255,10.295889 85.932884,9.0820254 85.474055,7.0884179 82.799357,14.52127 80.542189,24.0625 c -1.515167,6.404729 0.489105,3.482212 3.201314,-4.667975 z m 10,0 C 95.227032,14.936515 96.212255,10.295889 95.932884,9.0820254 95.474055,7.0884179 92.799357,14.52127 90.542189,24.0625 c -1.515166,6.404729 0.489105,3.482212 3.201314,-4.667975 z M 43.896409,45.625 c -0.06279,-0.6875 1.003587,-4.81574 2.369717,-9.173868 C 47.632258,32.093005 48.75,25.76488 48.75,22.388632 48.75,19.012385 49.3125,16.25 50,16.25 c 0.6875,0 1.25,2.216802 1.25,4.926229 0,2.709426 0.636471,5.31959 1.41438,5.800364 0.944741,0.583882 1.167886,3.513778 0.672033,8.823771 -0.408293,4.3723 -0.313639,7.949636 0.210341,7.949636 0.523978,0 3.136516,-4.479134 5.805637,-9.953629 4.936375,-10.12474 7.205698,-12.3842 10.059487,-10.015765 1.146317,0.951359 1.75688,0.869517 2.170433,-0.290934 1.239992,-3.479468 1.969457,-0.02196 0.985115,4.669222 -2.533201,12.072752 -2.734757,15.922788 -0.794606,15.178283 1.249205,-0.479364 1.624168,-0.121712 1.154785,1.101483 -1.091271,2.843806 -4.170472,2.11728 -4.24317,-1.00116 l -0.06556,-2.8125 -1.9619,2.8125 c -1.079048,1.546875 -2.957314,2.8125 -4.173928,2.8125 -2.466028,0 -4.160294,-4.718999 -2.99366,-8.338171 0.405435,-1.257757 -0.59466,-0.0416 -2.222435,2.702565 -5.373444,9.058765 -9.134168,6.504707 -6.083691,-4.131679 0.650791,-2.269179 0.742683,-5.316765 0.204205,-6.772413 -0.7917,-2.140168 -1.591204,-0.75107 -4.177977,7.259033 C 45.45008,42.417451 43.959195,46.3125 43.896409,45.625 Z M 66.984064,39.306778 C 69.618588,33.001475 69.896753,25.625 67.5,25.625 c -2.185429,0 -6.9365,13.28303 -5.805384,16.230674 1.21251,3.159748 3.330709,2.139023 5.289448,-2.548897 z"
       id="path19102"
       inkscape:connector-curvature="0" />
    <path
       style="fill:#0a0a0a"
       d="m 23.010054,60.625 c -1.896772,-2.894839 -1.896772,-3.355161 0,-6.25 1.126168,-1.71875 2.597111,-3.125 3.268762,-3.125 1.908415,0 1.43186,2.151684 -0.653816,2.952033 -2.57874,0.989556 -2.363374,6.639291 0.3125,8.197843 1.203125,0.700757 1.497342,1.291208 0.653816,1.312113 C 25.74779,63.732895 24.136222,62.34375 23.010054,60.625 Z m 11.501838,-2.634825 c 1.036379,-2.480404 2.132063,-7.402279 2.434853,-10.9375 C 37.578915,39.671795 40.106547,31.25 41.689599,31.25 c 0.59283,0 0.699001,0.984375 0.235935,2.1875 -0.463067,1.203125 -1.690847,6.657185 -2.728399,12.120132 C 37.517952,54.398897 34.629672,62.5 33.156684,62.5 c -0.291015,0 0.318828,-2.029421 1.355209,-4.509825 z m 41.321442,-1.323509 c -2.52239,-2.522389 2.881881,-40.84473 6.789694,-48.146544 1.686189,-3.1506753 4.183171,-2.2759464 4.503917,1.577788 L 87.378889,13.125 86.36485,10 85.35081,6.875 84.087436,10 c -2.219217,5.489314 -5.135672,20.022846 -3.85976,19.234289 0.675849,-0.417698 0.338605,0.962027 -0.74943,3.066055 C 78.390211,34.404372 77.5,37.620215 77.5,39.446661 c 0,2.646598 0.44412,3.151731 2.1875,2.488018 1.709259,-0.650724 1.85869,-0.501457 0.683505,0.682758 -1.07695,1.085227 -1.136925,2.201428 -0.211225,3.931115 0.711024,1.328561 1.017306,2.691028 0.680627,3.027707 -0.336677,0.336678 -0.982657,-0.555248 -1.43551,-1.982058 -1.574748,-4.961597 -3.403817,-2.704412 -2.963038,3.656576 0.238227,3.437928 0.386266,6.250428 0.328975,6.25 -0.05729,-4.27e-4 -0.479168,-0.375777 -0.9375,-0.834111 z m 3.622032,-0.783076 c 0.469414,-1.232776 1.168365,-1.926526 1.553224,-1.541666 0.384859,0.384859 7.92e-4,1.393492 -0.85348,2.24141 -1.23452,1.225334 -1.3781,1.081754 -0.699744,-0.699744 z m 5.998853,-0.252894 C 83.376002,50.214953 89.873405,10.876595 93.43426,7.3157396 95.329447,5.4205522 97.523548,7.1299695 97.3754,10.386271 97.259979,12.923258 97.18082,12.894803 96.300805,10 L 95.35081,6.875 94.087436,10 c -2.219217,5.489314 -5.135672,20.022846 -3.85976,19.234289 0.675849,-0.417698 0.338605,0.962027 -0.74943,3.066055 C 88.390211,34.404372 87.5,37.620215 87.5,39.446661 c 0,2.646598 0.44412,3.151731 2.1875,2.488018 1.709259,-0.650724 1.85869,-0.501457 0.683505,0.682758 -1.07695,1.085227 -1.136925,2.201428 -0.211225,3.931115 0.711024,1.328561 1.017306,2.691028 0.680627,3.027707 -0.336677,0.336678 -0.982657,-0.555248 -1.43551,-1.982058 -1.574748,-4.961597 -3.403817,-2.704412 -2.963038,3.656576 0.451296,6.512783 0.22164,7.531252 -0.98764,4.379919 z m 4.001147,0.252894 c 0.469414,-1.232776 1.168365,-1.926526 1.553224,-1.541666 0.384859,0.384859 7.93e-4,1.393492 -0.85348,2.24141 -1.23452,1.225334 -1.3781,1.081754 -0.699744,-0.699744 z M 25.2862,45.413382 C 20.159439,43.350645 18.370394,28.263155 21.892023,16.789376 25.786244,4.101654 36.238287,-2.5117131 42.5,3.75 45.941935,7.1919351 45.668846,13.16694 41.706144,21.119049 38.635831,27.280363 30.447034,35.007041 26.999953,34.995328 26.243729,34.992757 27.3125,33.94259 29.375,32.661622 37.481669,27.62677 42.5,19.073057 42.5,10.290148 42.5,4.8810677 40.755824,2.5 36.793574,2.5 c -6.909709,0 -13.399685,10.696333 -14.983413,24.694629 -0.804887,7.11427 -0.675096,7.807066 1.465882,7.824512 1.970822,0.01606 2.04712,0.212233 0.473957,1.218621 -2.910819,1.862119 0.930569,7.906524 5.670461,8.922443 3.290392,0.705243 3.355182,0.799509 0.579539,0.843217 -1.71875,0.02706 -3.83996,-0.238452 -4.7138,-0.59004 z m 25.21611,-0.907363 c -0.368076,-0.95919 -0.04005,-4.080596 0.728959,-6.936458 1.38341,-5.137592 0.733112,-10.658615 -1.120499,-9.513021 -0.527581,0.326064 -1.052796,-1.880586 -1.167143,-4.903666 -0.115199,-3.045675 0.43963,-5.896705 1.244326,-6.394035 1.040587,-0.643118 1.254951,0.318151 0.756255,3.391255 -0.438848,2.704299 -0.04911,5.173415 1.054909,6.683255 2.058058,2.814562 2.25795,7.920215 0.49194,12.565171 -1.601253,4.211616 -0.450442,6.256031 2.307728,4.099678 1.857462,-1.452176 1.895463,-1.392721 0.360659,0.564302 -2.069011,2.63819 -3.753404,2.798601 -4.657134,0.443519 z M 60.820062,45.3125 C 60.502449,44.796875 60.085197,42.40625 59.892839,40 c -0.70643,-8.83686 5.658877,-20.106571 9.199197,-16.287084 1.047615,1.130225 1.07017,1.394268 0.07124,0.833975 -3.219977,-1.806057 -7.888652,7.38052 -7.906304,15.557275 -0.009,4.187506 1.15337,5.252025 3.628017,3.322489 1.760733,-1.372881 1.792354,-1.299624 0.274455,0.635845 -1.8263,2.328711 -3.396333,2.780974 -4.339381,1.25 z m 8.763272,0.104162 C 69.125,44.958334 68.75,43.518886 68.75,42.217895 c 0,-1.30099 -0.48822,-2.063701 -1.084934,-1.694911 -0.596713,0.368788 -0.32354,-1.707389 0.607052,-4.613729 0.930592,-2.90634 2.008687,-6.897504 2.395768,-8.869254 0.387082,-1.971749 1.014677,-3.274106 1.394656,-2.894126 0.37998,0.37998 0.01768,4.682046 -0.805124,9.560146 -0.822798,4.8781 -1.178721,9.696083 -0.790938,10.706626 0.759345,1.978822 0.446882,2.334049 -0.883146,1.004019 z M 3.6838016,31.804535 C -0.71661125,27.12051 -0.49373911,19.49584 4.1606138,15.492334 7.5963128,12.53707 15,11.320198 15,13.710769 15,14.376692 14.154993,14.597278 13.122205,14.20096 9.2798131,12.726496 4.8680874,15.010401 3.0214549,19.430015 0.78645929,24.779112 1.7821355,29.253878 5.9340454,32.51977 7.6682511,33.883896 8.5468404,35 7.8864659,35 7.2260915,35 5.3348925,33.562041 3.6838016,31.804535 Z"
       id="path19100"
       inkscape:connector-curvature="0" />
  </g>
</svg>
